<?xml version="1.0" encoding="utf-8"?>
<!DOCTYPE svg PUBLIC "-//W3C//DTD SVG 20010904//EN" "http://www.w3.org/TR/2001/REC-SVG-20010904/DTD/svg10.dtd">
<svg version="1.0" xmlns="http://www.w3.org/2000/svg" width="2000pt" height="1999pt" viewBox="0 0 2000 1999" style="" preserveAspectRatio="xMidYMid meet">
<g fill="#4caf50" stroke="#4caf50">
<path d="M 999.683 0.650 C 999.308 1.026 998.992 2.496 998.983 3.917 C 998.973 5.338 998.315 9.567 997.521 13.315 C 996.727 17.064 995.797 22.014 995.455 24.315 C 995.113 26.617 993.941 33.225 992.851 39.000 C 990.869 49.496 990.052 53.981 986.019 76.500 C 984.836 83.100 983.489 90.525 983.025 93.000 C 982.235 97.216 981.648 100.441 977.483 123.500 C 976.588 128.450 975.214 135.988 974.428 140.250 C 973.643 144.513 972.357 151.488 971.572 155.750 C 970.786 160.013 969.455 167.325 968.615 172.000 C 966.892 181.578 964.581 193.881 962.415 205.000 C 961.612 209.125 960.304 216.100 959.508 220.500 C 958.713 224.900 957.838 229.400 957.564 230.500 C 957.290 231.600 956.145 237.450 955.019 243.500 C 953.894 249.550 952.738 255.625 952.451 257.000 C 952.164 258.375 951.468 261.975 950.904 265.000 C 949.225 274.005 941.418 312.881 936.445 337.000 C 933.893 349.375 930.722 364.900 929.397 371.500 C 928.071 378.100 926.315 386.538 925.494 390.250 C 923.919 397.365 922.134 405.589 919.471 418.000 C 918.586 422.125 917.449 427.300 916.945 429.500 C 916.442 431.700 915.116 437.550 914.000 442.500 C 912.884 447.450 911.539 453.300 911.011 455.500 C 910.483 457.700 909.384 462.425 908.569 466.000 C 905.051 481.430 894.481 525.233 892.523 532.500 C 891.781 535.250 889.286 544.700 886.977 553.500 C 881.084 575.964 876.618 592.185 875.000 597.000 C 874.538 598.375 873.407 602.200 872.487 605.500 C 870.845 611.385 860.694 643.740 856.821 655.433 C 854.470 662.530 844.385 689.666 843.045 692.500 C 842.525 693.600 840.226 699.000 837.937 704.500 C 833.186 715.912 824.673 733.226 818.761 743.500 C 809.138 760.224 792.528 782.714 790.395 781.907 C 789.497 781.568 778.374 769.036 759.373 746.956 C 757.222 744.457 753.846 740.632 751.871 738.456 C 749.895 736.280 740.467 725.500 730.919 714.500 C 721.372 703.500 713.290 694.275 712.959 694.000 C 712.629 693.725 707.902 688.325 702.455 682.000 C 697.008 675.675 692.090 670.012 691.526 669.415 C 690.962 668.819 688.475 665.925 686.000 662.984 C 683.525 660.043 679.862 655.806 677.859 653.569 C 675.857 651.331 668.904 643.425 662.409 636.000 C 655.915 628.575 650.128 622.010 649.550 621.411 C 648.973 620.813 646.250 617.692 643.500 614.477 C 622.036 589.382 618.015 585.045 618.027 587.000 C 618.036 588.476 619.511 598.044 622.538 616.250 C 625.208 632.313 626.065 637.442 626.425 639.500 C 627.184 643.838 628.977 654.712 629.559 658.500 C 629.896 660.700 631.962 673.075 634.149 686.000 C 636.335 698.925 638.771 713.550 639.562 718.500 C 641.602 731.272 643.686 744.065 645.425 754.500 C 648.640 773.791 650.128 782.846 651.505 791.500 C 652.293 796.450 653.629 804.550 654.475 809.500 C 655.320 814.450 656.473 821.425 657.037 825.000 C 658.603 834.936 659.033 837.370 659.514 839.000 C 659.757 839.825 660.394 843.425 660.930 847.000 C 661.990 854.076 663.973 866.128 666.525 881.000 C 667.422 886.225 668.762 894.325 669.504 899.000 C 671.638 912.452 675.893 937.978 677.005 944.000 C 677.563 947.025 678.487 952.425 679.058 956.000 C 679.629 959.575 680.772 966.550 681.597 971.500 C 682.423 976.450 683.746 984.550 684.539 989.500 C 685.332 994.450 686.195 999.625 686.458 1001.000 C 686.722 1002.375 687.878 1009.350 689.027 1016.500 C 690.177 1023.650 691.317 1030.625 691.559 1032.000 C 691.802 1033.375 692.457 1037.425 693.015 1041.000 C 696.157 1061.125 698.377 1073.663 699.016 1074.893 C 699.686 1076.182 700.376 1071.410 702.978 1047.500 C 705.462 1024.672 711.125 997.572 714.980 990.060 C 719.985 980.309 731.707 973.000 742.340 973.000 C 752.853 973.000 764.095 979.906 768.017 988.772 C 774.704 1003.888 770.849 1027.520 759.702 1039.750 L 757.651 1042.000 760.338 1042.000 C 764.167 1042.000 776.133 1045.457 782.680 1048.454 C 794.330 1053.787 807.887 1065.407 817.749 1078.512 C 832.829 1098.551 837.679 1105.741 851.668 1128.797 C 858.451 1139.976 864.000 1149.275 864.000 1149.463 C 864.000 1149.650 867.978 1157.160 872.840 1166.152 C 883.051 1185.036 894.899 1208.546 900.733 1221.500 C 902.962 1226.450 905.959 1233.059 907.393 1236.186 C 908.827 1239.313 910.000 1242.094 910.000 1242.366 C 910.000 1242.638 911.386 1245.929 913.081 1249.680 C 917.154 1258.696 915.746 1255.498 935.239 1300.000 C 938.009 1306.325 941.502 1314.200 943.001 1317.500 C 948.024 1328.559 949.737 1332.447 953.880 1342.199 C 956.146 1347.533 958.000 1352.135 958.000 1352.424 C 958.000 1353.002 956.728 1352.832 943.500 1350.486 C 918.538 1346.060 891.081 1337.794 869.579 1328.232 C 859.556 1323.774 833.990 1310.587 826.500 1306.011 C 807.559 1294.439 783.403 1276.556 768.500 1263.073 C 750.945 1247.191 727.230 1222.124 715.925 1207.500 C 712.949 1203.650 709.498 1199.380 708.257 1198.010 C 707.016 1196.641 706.000 1195.210 706.000 1194.832 C 706.000 1194.453 705.420 1193.548 704.711 1192.821 C 701.668 1189.703 687.458 1168.171 677.770 1152.000 C 663.948 1128.929 655.523 1112.572 645.063 1088.500 C 643.868 1085.750 642.478 1082.600 641.973 1081.500 C 641.468 1080.400 640.130 1077.025 639.000 1074.000 C 637.870 1070.975 636.551 1067.600 636.070 1066.500 C 635.589 1065.400 634.207 1061.575 633.000 1058.000 C 631.793 1054.425 630.421 1050.600 629.952 1049.500 C 627.608 1044.000 619.343 1015.932 614.198 996.000 C 602.923 952.314 597.342 907.469 596.402 853.000 C 595.955 827.116 596.204 818.565 598.049 796.500 C 599.244 782.200 600.285 768.725 600.361 766.556 L 600.500 762.611 596.909 767.556 C 591.248 775.349 585.249 781.635 578.104 787.256 C 574.472 790.114 571.275 792.715 571.000 793.037 C 570.325 793.827 559.590 800.238 553.926 803.235 C 530.092 815.844 491.258 814.477 468.594 800.233 C 464.336 797.557 463.806 797.566 450.000 800.570 C 445.875 801.467 439.800 802.783 436.500 803.493 C 429.738 804.949 404.866 810.432 395.000 812.642 C 391.425 813.443 385.575 814.695 382.000 815.424 C 373.369 817.185 352.994 821.703 345.500 823.517 C 342.200 824.316 333.200 826.360 325.500 828.058 C 317.800 829.757 304.525 832.691 296.000 834.578 C 287.475 836.465 268.125 840.705 253.000 844.002 C 237.875 847.298 217.400 851.800 207.500 854.006 C 197.600 856.212 186.350 858.674 182.500 859.476 C 175.340 860.968 168.253 862.524 155.000 865.512 C 150.875 866.442 144.350 867.870 140.500 868.685 C 127.809 871.371 121.666 872.712 107.000 876.000 C 99.025 877.788 89.800 879.831 86.500 880.541 C 80.800 881.768 74.678 883.151 60.000 886.529 C 56.425 887.352 50.350 888.694 46.500 889.511 C 42.650 890.328 33.425 892.364 26.000 894.034 C 18.575 895.705 9.688 897.597 6.250 898.239 C -3.752 900.107 -1.594 901.600 12.250 902.391 C 18.988 902.776 26.300 903.276 28.500 903.502 C 30.700 903.728 39.700 904.399 48.500 904.993 C 57.300 905.588 66.525 906.281 69.000 906.535 C 71.475 906.788 80.250 907.444 88.500 907.993 C 96.750 908.541 106.200 909.232 109.500 909.528 C 112.800 909.825 122.025 910.511 130.000 911.055 C 147.704 912.261 177.732 914.451 204.500 916.487 C 215.500 917.324 233.950 918.695 245.500 919.534 C 295.769 923.184 307.620 924.049 326.500 925.447 C 337.500 926.262 350.388 927.233 355.140 927.605 L 363.780 928.282 364.440 933.391 C 369.940 975.955 390.207 1018.220 414.939 1038.701 C 422.117 1044.646 435.791 1053.543 436.562 1052.771 C 436.829 1052.505 435.531 1048.735 433.678 1044.393 C 425.895 1026.154 421.780 1010.708 419.367 990.667 C 417.727 977.043 417.717 975.255 419.220 963.703 C 421.997 942.360 429.329 930.162 445.263 920.378 C 466.816 907.144 493.944 910.322 511.835 928.178 C 535.826 952.122 548.045 993.654 542.379 1032.000 C 541.010 1041.270 535.365 1061.998 532.303 1069.000 C 524.902 1085.928 516.172 1101.910 507.177 1115.000 C 501.946 1122.612 491.553 1136.412 489.163 1138.917 C 488.249 1139.876 485.570 1142.961 483.211 1145.771 C 474.756 1155.847 465.778 1165.669 451.500 1180.465 C 445.213 1186.979 416.803 1216.952 407.500 1226.885 C 399.233 1235.712 398.389 1236.599 374.193 1261.921 C 363.912 1272.680 352.575 1284.611 349.000 1288.433 C 345.425 1292.256 339.239 1298.785 335.253 1302.942 C 331.267 1307.099 328.004 1310.868 328.003 1311.317 C 327.999 1312.327 330.975 1311.421 337.500 1308.426 C 340.250 1307.164 346.550 1304.511 351.500 1302.531 C 356.450 1300.550 361.400 1298.521 362.500 1298.020 C 368.264 1295.396 373.952 1293.000 374.418 1293.000 C 374.708 1293.000 377.320 1291.921 380.223 1290.601 C 383.125 1289.282 395.850 1283.848 408.500 1278.526 C 433.114 1268.171 437.371 1266.368 440.500 1264.974 C 441.600 1264.484 448.125 1261.787 455.000 1258.981 C 461.875 1256.175 469.408 1253.006 471.739 1251.940 C 474.071 1250.873 476.213 1250.000 476.500 1250.000 C 476.787 1250.000 478.929 1249.127 481.261 1248.060 C 483.592 1246.993 488.291 1245.008 491.702 1243.649 L 497.903 1241.179 499.672 1245.840 C 506.236 1263.131 520.188 1281.590 534.000 1291.256 C 536.475 1292.988 539.095 1294.989 539.821 1295.702 C 540.548 1296.416 541.570 1297.000 542.091 1297.000 C 542.613 1297.000 544.718 1298.025 546.770 1299.277 C 558.079 1306.182 576.516 1310.855 595.750 1311.691 C 610.742 1312.344 612.862 1311.735 606.375 1308.642 C 600.569 1305.873 585.029 1293.788 578.378 1286.869 C 560.791 1268.573 551.452 1250.513 547.551 1227.250 C 543.343 1202.157 548.232 1187.741 564.025 1178.672 C 591.662 1162.802 638.189 1179.043 663.203 1213.294 C 665.295 1216.157 667.354 1218.950 667.779 1219.500 C 669.485 1221.708 677.922 1239.757 678.997 1243.500 C 688.404 1276.246 688.176 1300.959 678.116 1339.258 C 674.861 1351.649 665.639 1378.747 662.038 1386.500 C 661.527 1387.600 660.160 1390.750 659.000 1393.500 C 657.840 1396.250 656.490 1399.400 656.000 1400.500 C 655.510 1401.600 654.160 1404.750 653.000 1407.500 C 651.840 1410.250 650.490 1413.400 650.000 1414.500 C 649.509 1415.600 640.760 1436.172 630.557 1460.215 C 620.353 1484.258 610.814 1506.533 609.359 1509.715 C 607.903 1512.897 605.490 1518.425 603.995 1522.000 C 598.861 1534.283 588.858 1557.506 586.430 1562.777 C 585.094 1565.680 584.000 1568.292 584.000 1568.582 C 584.000 1569.038 582.296 1573.100 579.000 1580.500 C 578.510 1581.600 577.160 1584.750 576.000 1587.500 C 574.840 1590.250 573.490 1593.400 573.000 1594.500 C 572.510 1595.600 571.160 1598.750 570.000 1601.500 C 568.840 1604.250 567.490 1607.400 567.000 1608.500 C 566.510 1609.600 565.152 1612.750 563.982 1615.500 C 562.813 1618.250 561.213 1621.918 560.428 1623.651 C 559.642 1625.384 559.000 1627.039 559.000 1627.328 C 559.000 1627.617 557.480 1631.149 555.622 1635.177 C 553.764 1639.205 549.448 1649.025 546.030 1657.000 C 540.744 1669.335 535.583 1681.276 531.984 1689.500 C 531.503 1690.600 530.154 1693.750 528.986 1696.500 C 527.819 1699.250 526.239 1702.850 525.477 1704.500 C 524.687 1706.210 524.497 1707.642 525.036 1707.830 C 525.556 1708.012 551.073 1683.197 581.741 1652.686 C 612.408 1622.175 653.722 1581.076 673.548 1561.356 L 709.596 1525.500 715.957 1532.162 C 725.925 1542.602 743.441 1553.237 759.441 1558.564 C 770.402 1562.213 774.455 1562.931 798.500 1565.481 C 803.388 1566.000 828.208 1564.079 829.251 1563.102 C 829.664 1562.715 824.939 1560.709 818.751 1558.645 C 790.143 1549.101 766.645 1532.064 758.155 1514.711 C 752.451 1503.053 751.495 1498.672 751.560 1484.500 C 751.630 1469.576 753.127 1464.047 759.929 1453.611 C 769.657 1438.684 785.524 1428.361 808.000 1422.337 C 817.501 1419.791 848.508 1419.777 859.000 1422.314 C 874.168 1425.982 885.765 1430.565 897.000 1437.334 C 917.886 1449.918 939.245 1472.127 951.014 1493.500 C 955.878 1502.333 955.776 1502.132 957.807 1507.000 C 962.848 1519.085 964.598 1525.958 966.459 1540.992 C 967.853 1552.255 967.853 1554.647 966.455 1565.487 C 965.604 1572.094 964.418 1579.075 963.821 1581.000 C 958.113 1599.408 951.413 1612.075 943.709 1619.028 L 940.907 1621.556 943.477 1637.528 C 944.890 1646.313 946.919 1658.900 947.984 1665.500 C 949.050 1672.100 950.410 1680.650 951.005 1684.500 C 951.601 1688.350 952.280 1692.625 952.514 1694.000 C 952.747 1695.375 953.402 1699.650 953.968 1703.500 C 954.534 1707.350 955.678 1714.775 956.510 1720.000 C 957.958 1729.091 959.089 1736.413 962.453 1758.500 C 963.291 1764.000 964.657 1772.775 965.489 1778.000 C 966.320 1783.225 967.708 1792.225 968.573 1798.000 C 970.347 1809.853 972.282 1822.430 974.533 1836.750 C 975.376 1842.113 976.699 1850.775 977.474 1856.000 C 978.249 1861.225 979.611 1870.000 980.501 1875.500 C 981.392 1881.000 982.795 1890.000 983.620 1895.500 C 985.133 1905.592 986.683 1915.596 989.429 1933.000 C 990.253 1938.225 991.605 1947.090 992.432 1952.700 C 993.260 1958.310 994.163 1963.935 994.439 1965.200 C 994.716 1966.465 995.176 1969.178 995.462 1971.229 C 995.748 1973.280 996.661 1978.851 997.491 1983.610 C 998.321 1988.369 999.000 1993.526 999.000 1995.072 C 999.000 1998.048 1000.743 2000.034 1001.406 1997.813 C 1001.621 1997.091 1002.551 1991.100 1003.471 1984.500 C 1004.391 1977.900 1005.563 1970.475 1006.077 1968.000 C 1006.911 1963.977 1009.391 1947.989 1013.524 1920.000 C 1014.296 1914.775 1015.634 1906.000 1016.499 1900.500 C 1017.363 1895.000 1018.715 1886.000 1019.502 1880.500 C 1020.290 1875.000 1021.639 1866.000 1022.500 1860.500 C 1023.361 1855.000 1024.736 1846.000 1025.555 1840.500 C 1026.374 1835.000 1027.689 1826.225 1028.476 1821.000 C 1029.264 1815.775 1030.583 1807.000 1031.409 1801.500 C 1032.234 1796.000 1033.609 1787.000 1034.464 1781.500 C 1035.319 1776.000 1036.717 1766.775 1037.570 1761.000 C 1040.275 1742.702 1041.748 1732.949 1044.367 1716.000 C 1047.229 1697.484 1050.600 1675.528 1051.969 1666.500 C 1055.856 1640.849 1056.633 1635.917 1058.072 1627.759 L 1059.085 1622.018 1055.588 1618.521 C 1045.714 1608.647 1037.749 1592.060 1033.490 1572.500 C 1031.416 1562.976 1031.154 1540.840 1033.020 1532.798 C 1038.161 1510.641 1045.590 1494.284 1057.907 1478.000 C 1087.588 1438.758 1123.838 1419.000 1166.151 1419.000 C 1178.301 1419.000 1195.124 1421.776 1202.500 1424.997 C 1203.600 1425.478 1206.679 1426.793 1209.342 1427.920 C 1215.133 1430.370 1226.138 1437.630 1231.000 1442.206 C 1243.997 1454.439 1249.839 1469.977 1248.743 1489.398 C 1247.618 1509.346 1238.321 1525.302 1219.631 1539.369 C 1210.134 1546.517 1195.353 1553.940 1181.249 1558.645 C 1175.061 1560.709 1170.336 1562.715 1170.749 1563.102 C 1171.792 1564.079 1196.612 1566.000 1201.500 1565.481 C 1231.365 1562.314 1238.017 1560.692 1256.000 1552.199 C 1264.123 1548.363 1278.129 1538.356 1284.046 1532.162 L 1290.409 1525.500 1326.455 1561.366 C 1346.280 1581.092 1387.592 1622.190 1418.259 1652.696 C 1448.927 1683.201 1474.444 1708.012 1474.964 1707.830 C 1475.503 1707.642 1475.313 1706.210 1474.523 1704.500 C 1473.761 1702.850 1472.181 1699.250 1471.014 1696.500 C 1469.846 1693.750 1468.497 1690.600 1468.016 1689.500 C 1463.273 1678.660 1459.452 1669.815 1455.705 1661.000 C 1451.910 1652.071 1441.935 1629.080 1439.001 1622.500 C 1438.511 1621.400 1437.160 1618.250 1436.000 1615.500 C 1434.840 1612.750 1433.490 1609.600 1433.000 1608.500 C 1432.510 1607.400 1431.160 1604.250 1430.000 1601.500 C 1428.840 1598.750 1427.490 1595.600 1427.000 1594.500 C 1426.510 1593.400 1425.160 1590.250 1424.000 1587.500 C 1422.840 1584.750 1421.490 1581.600 1421.000 1580.500 C 1417.704 1573.100 1416.000 1569.038 1416.000 1568.582 C 1416.000 1568.292 1414.908 1565.680 1413.574 1562.777 C 1412.239 1559.875 1407.026 1547.825 1401.988 1536.000 C 1396.950 1524.175 1391.517 1511.656 1389.914 1508.180 C 1388.311 1504.704 1387.000 1501.638 1387.000 1501.366 C 1387.000 1501.094 1385.895 1498.455 1384.543 1495.501 C 1383.192 1492.547 1375.062 1473.564 1366.475 1453.315 C 1350.489 1415.615 1348.820 1411.697 1346.531 1406.500 C 1345.805 1404.850 1344.738 1402.375 1344.160 1401.000 C 1340.353 1391.941 1338.778 1388.257 1337.962 1386.500 C 1336.253 1382.821 1330.338 1366.605 1327.113 1356.758 C 1320.119 1335.404 1316.345 1317.958 1314.779 1299.748 C 1313.077 1279.951 1314.672 1265.538 1321.003 1243.500 C 1322.078 1239.757 1330.515 1221.708 1332.221 1219.500 C 1332.646 1218.950 1334.705 1216.157 1336.797 1213.294 C 1344.184 1203.178 1352.736 1195.046 1363.227 1188.159 C 1377.559 1178.750 1388.945 1174.731 1407.542 1172.517 C 1413.515 1171.806 1426.442 1174.178 1432.713 1177.136 C 1451.152 1185.834 1456.933 1200.511 1452.449 1227.250 C 1448.548 1250.513 1439.209 1268.573 1421.622 1286.869 C 1414.971 1293.788 1399.431 1305.873 1393.625 1308.642 C 1387.138 1311.735 1389.258 1312.344 1404.250 1311.691 C 1423.484 1310.855 1441.921 1306.182 1453.230 1299.277 C 1455.282 1298.025 1457.387 1297.000 1457.909 1297.000 C 1458.430 1297.000 1459.452 1296.416 1460.179 1295.702 C 1460.905 1294.989 1463.525 1292.988 1466.000 1291.256 C 1479.817 1281.586 1493.764 1263.132 1500.334 1245.825 L 1502.108 1241.149 1515.304 1246.585 C 1522.562 1249.574 1529.400 1252.447 1530.500 1252.969 C 1531.600 1253.491 1538.125 1256.212 1545.000 1259.018 C 1556.324 1263.638 1560.442 1265.361 1566.500 1268.010 C 1567.600 1268.491 1578.850 1273.231 1591.500 1278.544 C 1604.150 1283.856 1616.875 1289.282 1619.777 1290.601 C 1622.680 1291.921 1625.292 1293.000 1625.582 1293.000 C 1626.048 1293.000 1631.736 1295.396 1637.500 1298.020 C 1638.600 1298.521 1643.550 1300.550 1648.500 1302.531 C 1653.450 1304.511 1659.750 1307.164 1662.500 1308.426 C 1669.025 1311.421 1672.001 1312.327 1671.997 1311.317 C 1671.996 1310.868 1668.733 1307.099 1664.747 1302.942 C 1660.761 1298.785 1654.575 1292.256 1651.000 1288.433 C 1645.529 1282.583 1635.859 1272.434 1603.307 1238.375 C 1601.213 1236.185 1596.176 1230.816 1592.113 1226.446 C 1584.535 1218.296 1557.436 1189.724 1548.500 1180.465 C 1534.222 1165.669 1525.244 1155.847 1516.789 1145.771 C 1514.430 1142.961 1511.751 1139.876 1510.837 1138.917 C 1508.711 1136.689 1498.426 1123.125 1493.537 1116.104 C 1487.122 1106.890 1479.639 1093.967 1474.080 1082.500 C 1467.163 1068.234 1467.570 1069.231 1463.543 1056.676 C 1458.303 1040.338 1456.148 1027.030 1456.205 1011.371 C 1456.321 980.092 1468.954 947.158 1488.117 928.178 C 1506.154 910.312 1533.189 907.147 1554.737 920.378 C 1570.671 930.162 1578.003 942.360 1580.780 963.703 C 1582.283 975.255 1582.273 977.043 1580.633 990.667 C 1578.220 1010.708 1574.105 1026.154 1566.322 1044.393 C 1564.469 1048.735 1563.171 1052.505 1563.438 1052.771 C 1564.209 1053.543 1577.883 1044.646 1585.061 1038.701 C 1609.759 1018.249 1630.068 975.896 1635.560 933.391 L 1636.220 928.282 1644.860 927.605 C 1649.612 927.233 1662.500 926.262 1673.500 925.447 C 1692.380 924.049 1704.231 923.184 1754.500 919.534 C 1766.050 918.695 1784.500 917.324 1795.500 916.487 C 1822.268 914.451 1852.296 912.261 1870.000 911.055 C 1877.975 910.511 1887.200 909.825 1890.500 909.528 C 1893.800 909.232 1903.250 908.541 1911.500 907.993 C 1919.750 907.444 1928.525 906.788 1931.000 906.535 C 1933.475 906.281 1942.700 905.588 1951.500 904.993 C 1960.300 904.399 1969.300 903.728 1971.500 903.502 C 1973.700 903.276 1981.013 902.776 1987.750 902.391 C 2001.594 901.600 2003.752 900.107 1993.750 898.239 C 1990.313 897.597 1981.425 895.705 1974.000 894.034 C 1966.575 892.364 1957.350 890.328 1953.500 889.511 C 1949.650 888.694 1943.575 887.352 1940.000 886.529 C 1925.322 883.151 1919.200 881.768 1913.500 880.541 C 1910.200 879.831 1900.975 877.788 1893.000 876.000 C 1878.334 872.712 1872.191 871.371 1859.500 868.685 C 1855.650 867.870 1849.125 866.442 1845.000 865.512 C 1831.747 862.524 1824.660 860.968 1817.500 859.476 C 1813.650 858.674 1802.400 856.212 1792.500 854.006 C 1782.600 851.800 1762.125 847.298 1747.000 844.002 C 1731.875 840.705 1712.525 836.465 1704.000 834.578 C 1695.475 832.691 1682.200 829.757 1674.500 828.058 C 1666.800 826.360 1657.800 824.316 1654.500 823.517 C 1647.006 821.703 1626.631 817.185 1618.000 815.424 C 1614.425 814.695 1608.575 813.443 1605.000 812.642 C 1593.714 810.114 1569.776 804.849 1562.500 803.294 C 1558.650 802.472 1552.575 801.156 1549.000 800.371 C 1536.597 797.648 1535.366 797.603 1532.325 799.761 C 1518.473 809.591 1489.502 814.488 1468.724 810.512 C 1455.339 807.950 1449.520 805.622 1435.500 797.219 C 1432.200 795.241 1429.275 793.368 1429.000 793.057 C 1428.725 792.746 1425.334 789.964 1421.464 786.875 C 1417.594 783.786 1412.347 778.838 1409.805 775.879 C 1407.263 772.921 1404.222 769.375 1403.047 768.000 L 1400.910 765.500 1401.538 775.000 C 1401.883 780.225 1402.583 787.425 1403.093 791.000 C 1403.603 794.575 1404.292 812.350 1404.623 830.500 C 1405.500 878.510 1403.427 907.263 1395.613 955.500 C 1391.365 981.726 1383.710 1011.469 1372.321 1046.000 C 1369.872 1053.425 1367.290 1060.850 1366.584 1062.500 C 1365.878 1064.150 1364.719 1067.075 1364.009 1069.000 C 1355.250 1092.742 1338.075 1128.109 1324.111 1151.159 C 1323.225 1152.622 1321.186 1155.997 1319.579 1158.659 C 1310.238 1174.139 1288.046 1205.211 1279.117 1215.313 C 1264.151 1232.244 1258.697 1238.085 1248.405 1248.202 C 1241.857 1254.638 1234.729 1261.388 1232.564 1263.202 C 1230.399 1265.016 1226.124 1268.681 1223.064 1271.346 C 1204.362 1287.635 1175.972 1306.377 1151.000 1318.922 C 1130.083 1329.429 1102.769 1340.141 1087.000 1344.020 C 1074.624 1347.064 1069.844 1348.147 1062.500 1349.569 C 1052.987 1351.411 1043.604 1352.857 1043.238 1352.538 C 1043.002 1352.332 1044.688 1348.140 1048.481 1339.500 C 1049.205 1337.850 1053.252 1328.625 1057.475 1319.000 C 1061.697 1309.375 1066.671 1298.125 1068.529 1294.000 C 1070.386 1289.875 1075.342 1278.625 1079.541 1269.000 C 1083.740 1259.375 1087.778 1250.150 1088.513 1248.500 C 1090.921 1243.098 1094.632 1234.666 1098.855 1225.000 C 1106.809 1206.795 1131.201 1159.397 1140.686 1143.715 C 1143.609 1138.883 1146.000 1134.717 1146.000 1134.457 C 1146.000 1133.569 1165.926 1101.936 1169.269 1097.517 C 1169.693 1096.958 1173.617 1091.693 1177.990 1085.818 C 1191.209 1068.059 1201.712 1057.867 1214.201 1050.679 C 1219.859 1047.422 1236.034 1042.000 1240.090 1042.000 C 1243.539 1042.000 1243.763 1041.000 1240.896 1038.406 C 1237.480 1035.315 1234.021 1028.619 1231.819 1020.836 C 1230.144 1014.918 1229.848 1011.676 1230.241 1003.527 C 1230.767 992.630 1231.723 989.604 1236.580 983.471 C 1248.453 968.481 1272.905 970.270 1284.120 986.950 C 1287.636 992.180 1288.406 994.339 1291.626 1008.000 C 1295.187 1023.104 1300.653 1062.297 1300.964 1074.950 C 1300.986 1075.840 1301.341 1076.033 1301.883 1075.450 C 1302.368 1074.927 1303.482 1070.000 1304.359 1064.500 C 1310.444 1026.319 1317.920 980.851 1319.978 969.500 C 1320.476 966.750 1321.161 962.475 1321.500 960.000 C 1321.839 957.525 1322.546 953.250 1323.073 950.500 C 1323.599 947.750 1325.845 934.475 1328.065 921.000 C 1330.284 907.525 1332.730 892.675 1333.502 888.000 C 1334.273 883.325 1336.303 871.400 1338.013 861.500 C 1339.723 851.600 1341.775 839.450 1342.574 834.500 C 1344.460 822.807 1346.798 808.644 1348.599 798.000 C 1349.390 793.325 1350.682 785.450 1351.470 780.500 C 1352.258 775.550 1353.599 767.338 1354.451 762.250 C 1355.303 757.163 1356.692 748.838 1357.538 743.750 C 1358.383 738.663 1359.750 730.450 1360.575 725.500 C 1361.400 720.550 1362.495 713.800 1363.009 710.500 C 1363.522 707.200 1366.214 691.000 1368.991 674.500 C 1371.767 658.000 1375.152 637.525 1376.513 629.000 C 1377.875 620.475 1379.182 612.528 1379.419 611.340 C 1379.656 610.153 1380.167 607.003 1380.553 604.340 C 1380.940 601.678 1381.854 596.593 1382.584 593.040 C 1384.647 583.004 1385.292 582.594 1368.517 602.000 C 1363.050 608.325 1357.386 614.850 1355.930 616.500 C 1349.713 623.548 1343.075 631.088 1337.000 638.000 C 1333.425 642.068 1328.475 647.701 1326.000 650.517 C 1323.525 653.334 1320.360 656.957 1318.967 658.569 C 1311.914 666.732 1296.253 684.805 1294.331 687.000 C 1293.127 688.375 1291.173 690.625 1289.989 692.000 C 1283.757 699.237 1277.323 706.567 1275.961 707.981 C 1275.114 708.860 1270.174 714.511 1264.983 720.539 C 1259.792 726.568 1255.278 731.725 1254.952 732.000 C 1254.625 732.275 1249.909 737.675 1244.470 744.000 C 1239.032 750.325 1234.333 755.725 1234.028 756.000 C 1233.724 756.275 1228.993 761.675 1223.515 768.000 C 1218.036 774.325 1212.935 780.139 1212.177 780.921 C 1210.994 782.143 1210.356 781.862 1207.632 778.921 C 1197.359 767.831 1184.290 747.598 1173.387 725.904 C 1157.755 694.803 1144.402 658.627 1128.020 603.000 C 1124.567 591.275 1124.165 589.870 1122.513 583.756 C 1119.187 571.453 1117.754 566.385 1116.786 563.500 C 1116.232 561.850 1115.428 558.925 1114.999 557.000 C 1114.161 553.237 1108.629 531.759 1107.015 526.000 C 1106.475 524.075 1104.448 515.750 1102.509 507.500 C 1100.570 499.250 1098.569 490.925 1098.063 489.000 C 1096.656 483.647 1093.660 470.894 1089.019 450.500 C 1087.892 445.550 1086.536 439.700 1086.004 437.500 C 1084.794 432.492 1078.832 404.951 1075.939 391.000 C 1074.741 385.225 1073.195 377.800 1072.504 374.500 C 1071.813 371.200 1069.580 360.400 1067.542 350.500 C 1063.515 330.934 1063.538 331.044 1061.917 323.000 C 1061.307 319.975 1060.141 314.350 1059.326 310.500 C 1057.595 302.324 1048.352 255.899 1047.579 251.500 C 1047.289 249.850 1045.890 242.425 1044.469 235.000 C 1043.049 227.575 1041.218 217.900 1040.400 213.500 C 1039.581 209.100 1038.217 201.900 1037.368 197.500 C 1036.519 193.100 1035.215 186.125 1034.471 182.000 C 1033.727 177.875 1032.391 170.675 1031.502 166.000 C 1030.613 161.325 1029.198 153.675 1028.358 149.000 C 1027.517 144.325 1026.212 137.125 1025.457 133.000 C 1021.422 110.939 1020.676 106.882 1019.394 100.000 C 1018.625 95.875 1017.353 88.675 1016.568 84.000 C 1015.783 79.325 1014.248 70.775 1013.156 65.000 C 1012.065 59.225 1010.440 50.225 1009.544 45.000 C 1008.648 39.775 1007.280 32.350 1006.503 28.500 C 1004.692 19.523 1002.886 9.459 1002.285 5.000 C 1001.777 1.229 1000.777 -0.443 999.683 0.650 M 901.098 767.578 C 908.801 769.039 920.639 773.652 923.608 776.349 C 924.305 776.982 926.576 778.850 928.654 780.500 C 944.123 792.780 955.200 810.804 960.612 832.500 C 962.949 841.870 962.952 863.425 960.618 874.500 C 957.672 888.481 950.514 908.500 944.708 919.000 C 939.701 928.055 934.240 936.963 930.789 941.707 C 928.705 944.571 927.000 947.098 927.000 947.321 C 927.000 947.545 928.913 949.024 931.250 950.609 C 952.386 964.937 966.072 979.084 972.259 993.000 C 975.842 1001.061 979.390 1016.832 981.219 1032.828 C 982.568 1044.631 983.505 1347.965 982.188 1346.475 C 981.714 1345.939 979.713 1341.450 977.742 1336.500 C 975.770 1331.550 971.832 1321.875 968.990 1315.000 C 966.148 1308.125 960.038 1293.151 955.413 1281.724 C 950.788 1270.297 945.866 1258.147 944.477 1254.724 C 943.087 1251.301 941.511 1247.719 940.975 1246.764 C 940.439 1245.809 940.000 1244.546 940.000 1243.959 C 940.000 1243.371 939.158 1241.002 938.128 1238.695 C 935.907 1233.717 923.248 1199.693 919.638 1189.000 C 918.245 1184.875 915.105 1175.650 912.660 1168.500 C 910.214 1161.350 906.549 1150.100 904.514 1143.500 C 902.480 1136.900 899.543 1127.450 897.988 1122.500 C 883.700 1077.017 874.251 1034.932 872.393 1008.500 C 871.652 997.954 873.818 984.308 877.432 976.756 L 879.708 972.000 876.919 972.000 C 871.177 972.000 859.350 968.826 854.019 965.853 C 847.569 962.257 840.834 955.556 837.911 949.826 C 836.775 947.600 835.198 942.669 834.406 938.870 C 833.134 932.771 833.146 931.184 834.504 925.327 C 837.397 912.853 844.505 903.640 855.588 898.000 C 859.805 895.854 861.843 895.500 870.000 895.500 C 879.293 895.500 879.672 895.593 887.385 899.781 C 891.722 902.136 895.413 903.920 895.588 903.745 C 895.763 903.571 894.683 902.094 893.189 900.464 C 891.695 898.834 888.004 894.586 884.986 891.025 C 881.969 887.464 877.867 882.739 875.871 880.525 C 873.875 878.311 865.391 868.625 857.018 859.000 C 848.644 849.375 840.585 840.150 839.109 838.500 C 837.633 836.850 832.003 830.358 826.599 824.074 C 821.194 817.789 815.475 811.264 813.890 809.574 C 812.306 807.883 811.007 806.207 811.005 805.849 C 810.994 804.316 833.989 786.000 835.924 786.000 C 836.516 786.000 837.004 785.663 837.008 785.250 C 837.012 784.838 838.025 783.992 839.258 783.371 C 840.491 782.750 845.775 780.012 851.000 777.287 C 861.646 771.734 868.238 769.389 878.500 767.503 C 888.097 765.739 891.463 765.750 901.098 767.578 M 1122.329 767.551 C 1135.102 769.785 1146.512 774.264 1159.813 782.265 C 1171.163 789.092 1174.788 791.690 1185.729 800.836 L 1190.958 805.207 1185.729 811.291 C 1182.853 814.637 1179.825 818.111 1179.000 819.010 C 1176.415 821.827 1171.812 827.128 1162.075 838.500 C 1156.895 844.550 1152.158 849.950 1151.550 850.500 C 1150.941 851.050 1145.987 856.675 1140.542 863.000 C 1135.097 869.325 1130.382 874.725 1130.065 875.000 C 1129.747 875.275 1127.018 878.425 1124.000 882.000 C 1120.982 885.575 1118.284 888.725 1118.005 889.000 C 1113.951 892.995 1105.200 903.866 1105.664 904.330 C 1106.003 904.669 1107.904 903.690 1109.890 902.155 C 1129.258 887.178 1156.564 895.982 1165.240 920.000 C 1171.524 937.394 1164.186 956.231 1147.511 965.517 C 1141.488 968.870 1130.540 972.000 1124.831 972.000 C 1122.313 972.000 1121.915 972.303 1122.533 973.750 C 1128.044 986.657 1128.318 988.071 1128.395 1004.000 C 1128.436 1012.525 1127.929 1022.200 1127.268 1025.500 C 1126.607 1028.800 1125.119 1036.450 1123.961 1042.500 C 1118.183 1072.685 1106.406 1114.578 1088.539 1168.500 C 1084.347 1181.150 1080.531 1192.400 1080.058 1193.500 C 1079.586 1194.600 1077.535 1200.225 1075.500 1206.000 C 1073.465 1211.775 1071.403 1217.400 1070.917 1218.500 C 1070.431 1219.600 1068.435 1224.775 1066.482 1230.000 C 1064.529 1235.225 1062.271 1240.918 1061.465 1242.651 C 1060.659 1244.384 1060.000 1246.303 1060.000 1246.915 C 1060.000 1247.527 1059.552 1248.809 1059.004 1249.764 C 1058.456 1250.719 1056.478 1255.325 1054.607 1260.000 C 1048.892 1274.280 1041.967 1291.335 1040.598 1294.500 C 1039.884 1296.150 1038.712 1299.075 1037.994 1301.000 C 1037.276 1302.925 1035.719 1306.750 1034.534 1309.500 C 1033.350 1312.250 1029.483 1321.544 1025.940 1330.154 C 1022.398 1338.764 1019.407 1345.720 1019.292 1345.613 C 1018.735 1345.090 1018.934 1044.557 1019.496 1038.500 C 1021.789 1013.782 1025.953 997.367 1032.913 985.611 C 1036.531 979.499 1050.534 964.512 1057.500 959.295 C 1065.349 953.418 1071.995 949.000 1072.990 949.000 C 1074.916 949.000 1073.970 946.945 1067.892 937.920 C 1051.596 913.723 1042.080 888.785 1038.922 862.000 C 1037.841 852.829 1037.906 850.045 1039.437 840.000 C 1042.586 819.338 1050.216 803.314 1063.765 788.912 C 1070.080 782.199 1083.177 772.000 1085.483 772.000 C 1085.876 772.000 1087.616 771.327 1089.349 770.505 C 1092.936 768.804 1104.777 766.289 1110.000 766.120 C 1111.925 766.057 1117.473 766.701 1122.329 767.551 "/></g>
<g fill="#4caf50" stroke="#4caf50">
<path d="M 38.141 547.341 C 40.764 551.388 67.590 590.865 80.380 609.500 C 84.910 616.100 93.801 629.150 100.139 638.500 C 106.477 647.850 114.585 659.775 118.157 665.000 C 121.729 670.225 128.635 680.350 133.503 687.500 C 155.112 719.235 159.710 725.946 164.674 733.000 C 167.576 737.125 172.854 744.775 176.402 750.000 C 190.947 771.423 223.450 818.619 231.495 830.000 C 233.633 833.025 235.440 835.605 235.509 835.734 C 235.612 835.926 241.721 834.729 252.000 832.504 C 253.814 832.112 279.120 826.432 287.500 824.536 C 305.191 820.535 309.010 819.684 314.500 818.521 C 317.800 817.822 327.025 815.796 335.000 814.018 C 342.975 812.240 352.200 810.213 355.500 809.514 C 378.029 804.743 380.225 804.152 379.805 802.979 C 379.528 802.206 337.566 770.067 327.115 762.623 C 324.703 760.905 319.528 757.000 315.615 753.944 C 311.702 750.888 290.275 734.658 268.000 717.877 C 230.782 689.839 214.904 677.809 211.000 674.693 C 210.175 674.034 194.875 662.512 177.000 649.088 C 130.722 614.335 116.571 603.642 116.000 602.998 C 115.725 602.688 113.025 600.664 110.000 598.500 C 106.975 596.336 104.275 594.321 104.000 594.022 C 102.545 592.440 38.772 544.850 37.402 544.324 C 36.159 543.847 36.331 544.549 38.141 547.341 "/></g>
<g fill="#4caf50" stroke="#4caf50">
<path d="M 1930.392 568.039 C 1912.852 581.260 1897.825 592.624 1897.000 593.291 C 1896.175 593.959 1893.025 596.289 1890.000 598.469 C 1886.975 600.650 1884.275 602.712 1884.000 603.051 C 1883.725 603.390 1863.475 618.715 1839.000 637.106 C 1814.525 655.497 1788.650 675.007 1781.500 680.460 C 1774.350 685.914 1751.175 703.428 1730.000 719.381 C 1708.825 735.333 1689.443 749.986 1686.930 751.943 C 1684.416 753.899 1681.041 756.473 1679.430 757.663 C 1677.818 758.852 1674.250 761.530 1671.500 763.612 C 1668.750 765.695 1656.375 775.021 1644.000 784.337 C 1618.161 803.790 1619.426 802.759 1620.309 803.643 C 1620.948 804.282 1629.396 806.342 1644.000 809.420 C 1647.575 810.173 1657.025 812.243 1665.000 814.020 C 1672.975 815.797 1682.200 817.822 1685.500 818.521 C 1690.990 819.684 1694.809 820.535 1712.500 824.536 C 1720.880 826.432 1746.186 832.112 1748.000 832.504 C 1758.279 834.729 1764.388 835.926 1764.491 835.734 C 1764.560 835.605 1766.367 833.025 1768.505 830.000 C 1777.354 817.481 1798.767 786.400 1823.619 750.000 C 1827.186 744.775 1832.467 737.125 1835.353 733.000 C 1838.240 728.875 1844.882 719.200 1850.114 711.500 C 1855.345 703.800 1861.199 695.250 1863.123 692.500 C 1865.046 689.750 1870.847 681.200 1876.014 673.500 C 1881.181 665.800 1885.654 659.275 1885.955 659.000 C 1886.255 658.725 1890.126 653.100 1894.556 646.500 C 1904.428 631.792 1921.780 606.276 1943.518 574.500 C 1962.231 547.148 1964.253 544.000 1963.109 544.000 C 1962.656 544.000 1947.933 554.817 1930.392 568.039 "/></g>
<g fill="#4caf50" stroke="#4caf50">
<path d="M 1828.500 1024.538 C 1827.950 1024.772 1821.425 1025.669 1814.000 1026.531 C 1793.704 1028.887 1767.245 1032.134 1757.000 1033.528 C 1750.312 1034.437 1737.432 1036.092 1725.750 1037.542 C 1719.288 1038.344 1708.488 1039.708 1701.750 1040.573 C 1695.013 1041.438 1684.550 1042.774 1678.500 1043.543 C 1672.450 1044.311 1662.100 1045.626 1655.500 1046.465 C 1648.900 1047.303 1638.550 1048.638 1632.500 1049.431 C 1611.365 1052.201 1596.446 1054.128 1589.498 1054.984 C 1584.236 1055.633 1581.020 1056.736 1576.557 1059.424 C 1571.608 1062.404 1569.675 1063.000 1564.962 1063.000 C 1560.692 1063.000 1558.726 1062.497 1556.937 1060.946 C 1555.345 1059.565 1553.797 1059.085 1552.213 1059.483 C 1550.917 1059.808 1546.176 1060.516 1541.678 1061.056 C 1537.180 1061.597 1532.600 1062.463 1531.500 1062.981 C 1529.581 1063.885 1501.611 1074.800 1491.750 1078.493 C 1489.138 1079.471 1487.000 1080.679 1487.000 1081.176 C 1487.000 1084.632 1510.010 1120.682 1514.973 1125.000 C 1515.289 1125.275 1518.008 1128.650 1521.015 1132.500 C 1526.598 1139.649 1528.295 1141.631 1538.560 1153.000 C 1549.663 1165.297 1551.324 1167.000 1552.211 1167.000 C 1553.060 1167.000 1557.612 1164.870 1594.362 1147.274 C 1603.238 1143.024 1626.250 1131.606 1645.500 1121.902 C 1691.907 1098.506 1802.374 1042.766 1822.500 1032.590 C 1838.493 1024.504 1838.498 1024.500 1834.000 1024.306 C 1831.525 1024.199 1829.050 1024.303 1828.500 1024.538 "/></g>
<g fill="#4caf50" stroke="#4caf50">
<path d="M 162.000 1024.295 C 162.000 1024.611 170.438 1029.099 180.750 1034.270 C 191.063 1039.441 219.525 1053.805 244.000 1066.190 C 311.746 1100.472 380.952 1135.130 396.000 1142.311 C 403.425 1145.854 415.575 1151.671 423.000 1155.238 C 430.425 1158.804 439.150 1162.972 442.388 1164.499 L 448.276 1167.276 451.937 1163.388 C 455.709 1159.382 464.949 1149.177 470.404 1142.990 C 472.107 1141.059 475.661 1136.784 478.302 1133.490 C 480.944 1130.195 483.651 1126.825 484.318 1126.000 C 495.243 1112.489 513.000 1084.776 513.000 1081.235 C 513.000 1080.227 510.189 1078.979 491.000 1071.466 C 468.075 1062.490 466.996 1062.149 457.500 1060.888 C 446.065 1059.371 444.432 1059.425 442.465 1061.392 C 441.361 1062.496 439.058 1063.000 435.120 1063.000 C 430.320 1063.000 428.418 1062.419 423.481 1059.446 C 417.295 1055.721 416.848 1055.624 391.500 1052.478 C 384.900 1051.659 374.550 1050.345 368.500 1049.558 C 362.450 1048.771 351.875 1047.396 345.000 1046.501 C 338.125 1045.607 327.550 1044.261 321.500 1043.510 C 315.450 1042.760 304.988 1041.438 298.250 1040.573 C 291.513 1039.708 280.713 1038.344 274.250 1037.542 C 262.568 1036.092 249.688 1034.437 243.000 1033.528 C 237.710 1032.808 223.857 1031.064 211.000 1029.498 C 204.675 1028.728 193.650 1027.379 186.500 1026.500 C 167.196 1024.127 162.000 1023.660 162.000 1024.295 "/></g>
<g fill="#4caf50" stroke="#4caf50">
<path d="M 1360.222 1000.396 C 1343.957 1012.758 1329.337 1023.954 1324.360 1027.860 C 1322.223 1029.537 1321.048 1031.471 1320.681 1033.912 C 1320.385 1035.886 1319.446 1041.775 1318.596 1047.000 C 1315.852 1063.865 1314.036 1075.481 1314.018 1076.284 C 1314.008 1076.715 1312.634 1078.402 1310.966 1080.034 C 1308.307 1082.633 1307.223 1082.996 1302.216 1082.971 C 1297.341 1082.946 1296.035 1082.518 1293.340 1080.065 C 1290.565 1077.540 1290.101 1076.353 1289.540 1070.344 C 1289.188 1066.580 1288.661 1061.826 1288.368 1059.781 L 1287.835 1056.062 1285.167 1057.758 C 1283.700 1058.691 1282.275 1059.714 1282.000 1060.033 C 1281.725 1060.351 1271.150 1068.453 1258.500 1078.037 C 1245.850 1087.621 1234.600 1096.236 1233.500 1097.182 C 1232.400 1098.128 1225.370 1103.536 1217.877 1109.201 C 1190.850 1129.634 1158.490 1154.382 1158.000 1154.992 C 1157.725 1155.334 1153.864 1158.363 1149.421 1161.722 C 1138.548 1169.942 1134.283 1176.447 1142.214 1172.716 C 1144.021 1171.866 1147.975 1170.070 1151.000 1168.726 C 1156.683 1166.202 1163.748 1162.935 1179.852 1155.384 C 1184.995 1152.973 1189.366 1151.000 1189.566 1151.000 C 1189.765 1151.000 1195.155 1148.525 1201.544 1145.500 C 1207.934 1142.475 1213.305 1140.000 1213.481 1140.000 C 1213.657 1140.000 1217.784 1138.164 1222.651 1135.920 C 1227.518 1133.677 1233.525 1130.921 1236.000 1129.796 C 1238.475 1128.671 1243.200 1126.497 1246.500 1124.965 C 1249.800 1123.432 1254.750 1121.185 1257.500 1119.971 C 1262.869 1117.600 1271.851 1113.513 1281.500 1109.048 C 1284.800 1107.521 1289.075 1105.572 1291.000 1104.716 C 1292.925 1103.860 1298.325 1101.396 1303.000 1099.240 C 1307.675 1097.083 1316.900 1092.899 1323.500 1089.941 C 1330.100 1086.983 1338.156 1083.199 1341.403 1081.531 C 1347.670 1078.313 1347.759 1078.177 1353.719 1062.500 C 1354.555 1060.300 1355.620 1057.600 1356.086 1056.500 C 1361.778 1043.051 1377.745 989.000 1376.026 989.000 C 1375.581 989.000 1368.470 994.128 1360.222 1000.396 "/></g>
<g fill="#4caf50" stroke="#4caf50">
<path d="M 625.024 990.191 C 625.070 992.741 629.885 1010.645 633.982 1023.500 C 638.201 1036.741 642.940 1051.015 643.942 1053.500 C 644.385 1054.600 646.733 1060.675 649.158 1067.000 L 653.569 1078.500 661.534 1082.511 C 665.915 1084.717 671.975 1087.609 675.000 1088.938 C 678.025 1090.267 684.550 1093.238 689.500 1095.541 C 694.450 1097.843 700.750 1100.746 703.500 1101.991 C 706.250 1103.237 712.550 1106.160 717.500 1108.487 C 728.046 1113.444 737.094 1117.604 742.000 1119.751 C 743.925 1120.594 748.875 1122.837 753.000 1124.737 C 757.125 1126.636 762.300 1129.011 764.500 1130.015 C 766.700 1131.019 772.482 1133.677 777.349 1135.920 C 782.216 1138.164 786.343 1140.000 786.519 1140.000 C 786.695 1140.000 792.066 1142.475 798.456 1145.500 C 804.845 1148.525 810.235 1151.000 810.434 1151.000 C 810.634 1151.000 815.005 1152.973 820.148 1155.384 C 834.726 1162.219 843.149 1166.107 847.500 1168.008 C 849.700 1168.969 854.059 1170.936 857.186 1172.378 C 860.313 1173.820 863.137 1175.000 863.462 1175.000 C 865.204 1175.000 860.569 1169.030 856.632 1166.202 C 854.120 1164.399 851.489 1162.363 850.783 1161.679 C 850.077 1160.994 847.925 1159.346 846.000 1158.015 C 844.075 1156.685 842.275 1155.320 842.000 1154.983 C 841.725 1154.645 831.198 1146.524 818.606 1136.935 C 806.014 1127.346 789.364 1114.665 781.606 1108.755 C 773.848 1102.846 766.823 1097.433 765.996 1096.726 C 765.169 1096.019 754.144 1087.602 741.496 1078.021 C 728.848 1068.439 718.275 1060.307 718.000 1059.950 C 717.725 1059.592 716.488 1058.766 715.250 1058.115 C 713.469 1057.177 712.999 1057.198 712.997 1058.215 C 712.996 1058.922 712.506 1063.550 711.909 1068.500 C 711.010 1075.963 710.380 1077.970 708.225 1080.250 C 705.917 1082.692 704.910 1083.000 699.236 1083.000 C 693.589 1083.000 692.524 1082.678 690.079 1080.233 C 688.212 1078.366 687.118 1076.009 686.714 1072.983 C 686.385 1070.517 685.394 1064.225 684.512 1059.000 C 683.631 1053.775 682.452 1046.125 681.894 1042.000 C 681.335 1037.875 680.429 1033.375 679.879 1032.000 C 679.329 1030.625 674.294 1026.066 668.690 1021.870 C 663.085 1017.673 651.501 1008.867 642.947 1002.300 C 624.710 988.301 624.993 988.492 625.024 990.191 "/></g>
<g fill="#4caf50" stroke="#4caf50">
<path d="M 1517.000 924.586 C 1495.527 931.213 1480.710 950.564 1471.122 984.500 C 1467.443 997.525 1465.450 1020.924 1467.892 1022.434 C 1468.770 1022.976 1474.652 1020.633 1486.500 1015.021 C 1489.800 1013.457 1494.750 1011.177 1497.500 1009.953 C 1500.250 1008.728 1506.775 1005.717 1512.000 1003.261 C 1517.225 1000.805 1525.325 997.097 1530.000 995.021 C 1534.675 992.945 1541.425 989.883 1545.000 988.216 C 1548.575 986.549 1555.100 983.561 1559.500 981.576 C 1571.373 976.220 1570.542 977.169 1570.190 969.366 C 1569.379 951.392 1560.525 936.376 1546.556 929.281 C 1534.613 923.215 1525.919 921.834 1517.000 924.586 "/></g>
<g fill="#4caf50" stroke="#4caf50">
<path d="M 463.500 924.928 C 449.412 929.950 440.959 936.578 436.128 946.392 C 432.129 954.515 430.373 960.584 429.510 969.270 L 428.837 976.040 433.668 978.155 C 436.326 979.319 443.151 982.460 448.836 985.135 C 454.521 987.811 459.324 990.000 459.509 990.000 C 459.694 990.000 464.640 992.250 470.500 995.000 C 476.360 997.750 481.299 1000.000 481.476 1000.000 C 481.652 1000.000 486.230 1002.078 491.648 1004.619 C 502.352 1009.637 511.225 1013.717 517.500 1016.506 C 519.700 1017.484 523.722 1019.345 526.437 1020.642 C 529.153 1021.939 531.740 1023.000 532.187 1023.000 C 533.566 1023.000 533.083 1003.924 531.503 996.000 C 524.967 963.220 510.114 937.272 493.000 928.738 C 481.181 922.844 472.495 921.722 463.500 924.928 "/></g>
<g fill="#4caf50" stroke="#4caf50">
<path d="M 1327.999 1261.100 C 1327.998 1261.320 1327.314 1265.325 1326.479 1270.000 C 1323.910 1284.387 1324.827 1301.165 1329.248 1320.679 C 1330.418 1325.840 1330.442 1325.865 1335.961 1327.497 C 1339.007 1328.398 1342.534 1329.555 1343.797 1330.068 C 1347.220 1331.457 1352.490 1331.200 1358.312 1329.361 C 1373.389 1324.597 1384.000 1320.651 1384.000 1319.807 C 1384.000 1319.285 1383.325 1318.182 1382.500 1317.357 C 1381.501 1316.358 1381.000 1313.859 1381.000 1309.872 C 1381.000 1304.459 1381.295 1303.618 1384.091 1301.064 C 1385.792 1299.511 1388.379 1297.624 1389.841 1296.870 C 1391.304 1296.117 1392.950 1295.166 1393.500 1294.758 C 1394.050 1294.350 1398.100 1291.390 1402.500 1288.181 C 1411.077 1281.924 1418.280 1274.493 1423.273 1266.750 C 1424.970 1264.117 1424.970 1263.997 1423.273 1263.938 C 1422.298 1263.904 1410.475 1263.462 1397.000 1262.957 C 1356.851 1261.450 1328.000 1260.674 1327.999 1261.100 "/></g>
<g fill="#4caf50" stroke="#4caf50">
<path d="M 628.500 1262.047 C 623.000 1262.442 612.425 1262.821 605.000 1262.889 C 597.575 1262.956 587.819 1263.299 583.321 1263.649 L 575.141 1264.286 576.821 1266.892 C 581.708 1274.478 588.984 1281.969 597.500 1288.181 C 601.900 1291.390 605.950 1294.350 606.500 1294.758 C 607.050 1295.166 608.696 1296.117 610.159 1296.870 C 611.621 1297.624 614.208 1299.511 615.909 1301.064 C 618.705 1303.618 619.000 1304.459 619.000 1309.872 C 619.000 1313.859 618.499 1316.358 617.500 1317.357 C 616.675 1318.182 616.000 1319.285 616.000 1319.807 C 616.000 1320.651 626.611 1324.597 641.688 1329.361 C 647.510 1331.200 652.780 1331.457 656.203 1330.068 C 657.466 1329.555 660.993 1328.398 664.039 1327.497 C 669.558 1325.865 669.582 1325.840 670.752 1320.679 C 675.173 1301.165 676.090 1284.387 673.521 1270.000 C 672.686 1265.325 672.002 1261.388 672.001 1261.250 C 671.999 1260.736 638.119 1261.357 628.500 1262.047 "/></g>
<g fill="#4caf50" stroke="#4caf50">
<path d="M 1303.500 1152.000 C 1301.300 1153.063 1298.803 1153.947 1297.950 1153.966 C 1297.098 1153.985 1295.973 1154.377 1295.450 1154.839 C 1294.928 1155.300 1288.650 1157.833 1281.500 1160.467 C 1274.350 1163.102 1266.700 1166.037 1264.500 1166.991 C 1262.300 1167.945 1257.125 1169.977 1253.000 1171.507 C 1240.395 1176.181 1204.624 1190.002 1202.500 1191.019 C 1201.400 1191.545 1194.650 1194.180 1187.500 1196.874 C 1180.350 1199.567 1173.375 1202.239 1172.000 1202.812 C 1162.616 1206.720 1146.151 1213.000 1145.287 1213.000 C 1144.714 1213.000 1143.627 1213.750 1142.872 1214.666 C 1141.619 1216.188 1141.846 1216.271 1145.500 1215.620 C 1147.700 1215.228 1155.125 1214.278 1162.000 1213.509 C 1168.875 1212.740 1180.350 1211.422 1187.500 1210.581 C 1209.468 1207.998 1226.890 1206.014 1241.000 1204.489 C 1272.093 1201.128 1276.195 1200.451 1277.719 1198.426 C 1283.923 1190.188 1297.401 1171.232 1301.131 1165.500 C 1311.069 1150.226 1311.190 1149.997 1309.263 1150.034 C 1308.293 1150.053 1305.700 1150.937 1303.500 1152.000 "/></g>
<g fill="#4caf50" stroke="#4caf50">
<path d="M 695.675 1158.750 C 706.203 1175.111 711.302 1182.487 718.406 1191.630 L 725.500 1200.760 734.000 1201.449 C 738.675 1201.827 744.525 1202.545 747.000 1203.043 C 749.475 1203.542 756.225 1204.396 762.000 1204.942 C 771.873 1205.875 782.156 1207.023 812.000 1210.522 C 818.875 1211.329 830.800 1212.727 838.500 1213.630 C 846.200 1214.533 854.013 1215.323 855.861 1215.386 C 859.090 1215.495 859.129 1215.454 856.861 1214.321 C 855.563 1213.673 849.100 1211.053 842.500 1208.498 C 835.900 1205.943 829.375 1203.385 828.000 1202.812 C 826.625 1202.239 819.650 1199.567 812.500 1196.874 C 805.350 1194.180 798.600 1191.551 797.500 1191.031 C 794.635 1189.676 764.348 1177.900 735.500 1166.923 C 728.350 1164.202 721.600 1161.537 720.500 1161.000 C 717.385 1159.479 691.889 1150.000 690.914 1150.000 C 690.436 1150.000 692.579 1153.938 695.675 1158.750 "/></g>
</svg>
