<svg xmlns="http://www.w3.org/2000/svg" width="379.5041" height="198.6342" viewBox="0 0 379.5041 198.6342">
  <g id="katman_2" data-name="katman 2">
    <g id="katman_1-2" data-name="katman 1">
      <g>
        <path d="M201.304,99.128c-6.1,0-10.8-.1-16.2-.1.5-4.7,1-8.7,1.4-12.6h-6.5c-.1,9.7-.1,19.2-.2,29.6,10.1-2.1,2.3-10.8,7.3-14.1,4.1,0,8.6.1,13.5.1,0,4.6-.1,8.7-.1,13.1h5.8c.1-9.8.1-19.2.2-28.7-2.2,0-5.1,0-6.9-.1C200.104,90.728,200.704,94.828,201.304,99.128Z" style="fill: none"/>
        <path d="M193.704,68.628c-18.2-.3-33.3,14.4-33.2,32.4.1,17.6,14.8,32.5,32.3,32.7,17.4.2,32.5-14.7,32.7-32.3A32.3551,32.3551,0,0,0,193.704,68.628Zm-.5,62c-16,.1-29.5-13.3-29.7-29.5a29.1322,29.1322,0,0,1,29.5-29.3c16.7,0,29.4,12.6,29.5,29.1A29.4918,29.4918,0,0,1,193.204,130.628Z" style="fill: none"/>
        <path d="M257.404,87.128c-6.2,5.6-11.3,12.5-17.9,17.5-6.7,5.1-9.3,11.1-7.3,18.6,4,14.9-10.9,24.4-22.9,20.8-5.4-1.6-12.3-1.8-17.4.2-18.3,7-26.7,3.5-34.1-14.8-1.9-4.7-5.8-8.7-9.2-12.7-3-3.5-7.4-6.1-9.8-9.9-6.2-9.7-17.5-12.2-26-5.1-5,4.3-10.1,8.5-15.1,12.8q-43.2,36.9-86.4,73.7c-.2,1.2-.4,2.4-.6,3.5,7.3,2.4,14.7,7.1,21.9,6.9,81.2-2.3,162.4-5.3,243.5-8.1,26.7-.9,53.3-1.6,80-2.9,11.3-.6,18-6.6,21-17.3-37.4-27.8-74.8-55.8-112.5-83.5C263.004,85.728,258.804,85.828,257.404,87.128Z"/>
        <path d="M138.004,94.928c1.6,1,4.2,1.1,6.2.7,6.6-1.2,8.8-5.1,8.7-12-.1-14.3,4.6-17.9,18.6-18.6,4-.2,8.6-2.6,11.7-5.3,10.9-9.5,22.3-8.2,30.8,2.9,4,5.2,10,9.1,15.6,12.9,4.8,3.2,10.2,5.5,16.2,8.6,36-26.7,72.9-54.1,109.9-81.6a20.4606,20.4606,0,0,1-.5-2.4c-3.8,0-7.7-.2-11.5-.1-26.9.9-53.9,1.9-80.8,2.8q-117,4.05-233.9,8.1c-5.7.2-11.3,1.8-18.7,3.1,2.7,2.6,3.4,3.5,4.3,4Q76.104,56.728,138.004,94.928Z"/>
        <path d="M2.904,21.028c-1.2,6.1-3,10.6-2.9,15.1q1.95,70.05,4.4,140.1c0,1.3.7,2.6,1.5,5.6,36.1-31.3,70.9-61.5,106.6-92.5C75.704,66.528,40.304,44.428,2.904,21.028Z"/>
        <path d="M375.004,31.428a69.3674,69.3674,0,0,0-3.6-19.2c-2-5.7-5.7-7.5-11.8-2.8-28.5,22.3-57.4,44.1-86.1,66.1-1.7,1.3-3.2,2.9-5.3,4.8,37,27,73.3,53.4,110.5,80.5a27.2136,27.2136,0,0,0,.8-4.6C378.004,114.528,376.704,72.928,375.004,31.428Z"/>
        <path d="M235.204,101.828c8.2-7.4,5.2-16.1-4.9-21.1a66.5775,66.5775,0,0,1-20-15.4c-6.9-7.9-15.9-10.1-23.2-2.4-5.3,5.5-10.9,7.9-18.3,7.1-7.1-.7-10.7,2.8-11,9.9-.1,3.2.5,6.7-.7,9.4-1.6,3.5-4.6,6.3-7.1,9.3-1.7,2-5,3.6-5.2,5.6-.2,2.3,1.8,6.3,3.7,6.9,9.3,3.2,11.7,11.1,14.6,18.9,4.8,12.8,13.1,15.6,25.9,10.4,5-2,11-2,16.5-2.3,3-.1,6.2,1.2,7.9,1.6,10.3.3,15.9-5.3,14.2-13.9C225.604,116.128,227.704,108.628,235.204,101.828Zm-42.4,31.9c-17.5-.2-32.2-15.1-32.3-32.7-.1-18,15-32.7,33.2-32.4a32.3788,32.3788,0,0,1,31.8,32.9C225.304,119.028,210.204,134.028,192.804,133.728Z"/>
        <path d="M192.904,71.828c-16.4,0-29.7,13.1-29.5,29.3s13.7,29.6,29.7,29.5a29.3415,29.3415,0,0,0,29.3-29.6C222.404,84.428,209.604,71.828,192.904,71.828Zm13.3,43.3h-5.8c0-4.4.1-8.5.1-13.1-4.9,0-9.4-.1-13.5-.1-5,3.3,2.8,12-7.3,14.1.1-10.4.1-19.8.2-29.6h6.5c-.4,3.9-.9,7.9-1.4,12.6,5.4,0,10.2.1,16.2.1-.6-4.3-1.2-8.5-1.8-12.7,1.9,0,4.7,0,6.9.1C206.404,95.928,206.304,105.328,206.204,115.128Z"/>
      </g>
    </g>
  </g>
</svg>
