<svg xmlns="http://www.w3.org/2000/svg" width="505.316" height="306.9574" viewBox="0 0 505.316 306.9574">
  <g id="katman_2" data-name="katman 2">
    <g id="katman_1-2" data-name="katman 1">
      <path d="M503.82,66.6243a21.1686,21.1686,0,0,0-11.5-4.6c-4.1-.3-8.4-.6-12.3,1.4a21.2979,21.2979,0,0,1-3.5,1.4c-3.7,1.2-7.6,2.2-11.3,3.3-4.5,1.3-8.6-.2-12.7-2-4.5-2-8.8-4.4-13.5-5.9a42.4276,42.4276,0,0,0-17.7-1.9c-3.5.4-7,.5-10.3,2.1-2.4,1.1-5,2-7.5,2.9-2.9,1.1-5.8,2.1-8.8,3-5.7,1.7-11.4,3.6-17.2,4.8-4.3.9-8.8.8-13.2,1.3a30.3886,30.3886,0,0,0-6.7,1.2,85.3538,85.3538,0,0,0-9.7,4.5c-4.8,2.4-9.5,4.9-14.2,7.5a80.72,80.72,0,0,1-16.4,6.7c-5.6,1.7-11.2,3.3-17.2,3.3-4.8,0-9.5.5-14.3.8a6.9218,6.9218,0,0,1-2.5-.1c-3.6-1.4-7-3.2-10.5-4.7-5.2-2.2-10.4-4.7-15.4-7.3a106.3669,106.3669,0,0,1-13.1-7.6c-4.9-3.4-9.2-7.5-13.9-11.2a76.3949,76.3949,0,0,0-7.3-5.4c-3-1.8-6.3-3.1-9.4-4.8-.6-.3-1.5-.9-1.4-1.3a3.3793,3.3793,0,0,1,1-2.5c4-2.7,8.2-5.2,12.3-7.9,1.5-1,3-2,4.4-3,.9-.6,1.4-1.4.9-2.3-.3-.5-1.2-.7-1.8-.9a12.75,12.75,0,0,0-2-.1c-3.6,0-7.2-.3-10.3-2.2-2-1.2-3.8-2.7-5.8-3.9a13.5532,13.5532,0,0,0-4.3-1.8c-3.5-.9-7.1-1.4-10.6-2.2-3.1-.7-6.2-1.6-9.4-2.2a9.95,9.95,0,0,0-7.1,1.3c-7.3,4.1-14.7,8.1-22,12.1a4.1009,4.1009,0,0,0-2.2,3.8,7.4872,7.4872,0,0,1-.7,3.6c-.7,1.4-2.4,1.2-3.1-.2a4.5519,4.5519,0,0,1-.5-2c-.1-2.6-.2-5.1-.1-7.7a3.733,3.733,0,0,1,1.2-2.6c1.2-1.1,1.2-1.8-.1-2.7a4.6489,4.6489,0,0,1-1.8-5.3,6.0455,6.0455,0,0,0-1.7-6.5,26.5772,26.5772,0,0,1-3.2-3.5,4.3587,4.3587,0,0,1-.4-1.8c0-.2.1-.4.3-.4.4-.1.8-.1,1.2-.2a2.4707,2.4707,0,0,0,.9-.4.83.83,0,0,0-.2-.8c-.9-.8-1.8-1.5-2.7-2.2a24.1721,24.1721,0,0,0-10.3-5.3c-2.7-.5-5.5-.8-7.9-2.2a.6375.6375,0,0,0-.6,0c-2,.5-3.9,1.1-5.9,1.7a11.2711,11.2711,0,0,1-1.8.3.4575.4575,0,0,1-.5-.4,10.8687,10.8687,0,0,1,.1-1.8c0-.1.2-.3.2-.4.4-1.1-.1-1.7-1.1-1.3-1.6.6-3.4,1.1-4.6,2.3a12.92,12.92,0,0,1-11.9,3.7,2.71,2.71,0,0,0-3.3,1.8,17.5061,17.5061,0,0,0-.6,3.3c-.2,1.4-.1,2.8-.4,4.2a7.08,7.08,0,0,1-1.2,2c-.1.2-.4.1-.5-.1-.3-.7-.5-1.5-.8-2.2a5.3877,5.3877,0,0,0-.7-1.3.4809.4809,0,0,0-.6-.2,2.2762,2.2762,0,0,0-.9.8,15.0462,15.0462,0,0,0-1.6,3.4,4.2371,4.2371,0,0,0,1.9,4.6,3.7121,3.7121,0,0,1,1.8,4.7c-.6,1.8-1.2,3.5-1.7,5.3-.7,2.4-1.2,4.7-3.5,6.3-.6.4-.6,2.1-.3,3a19.6037,19.6037,0,0,0,2.4,4.8c1.9,2.5,1.6,4.9.3,7.4-1.5,3.1-.8,5,2.3,6.3.2.1.4.1.6.2a2.929,2.929,0,0,1,2.2,2.1c1.1,2.3,2.1,4.8,4,6.4a10.66,10.66,0,0,1,3.3,4.8c.5,1.5,1.4,2.9,3,3.2,3.7.7,7.4.6,10.7-1.4,2.2-1.3,4.1-3,6.3-4.3,1.5-1,2.9-.4,4.1,1.3,1.1,1.4.4,2.5-.7,3.4-1.5,1.3-3.2,2.4-4.7,3.8a5.4526,5.4526,0,0,0-1,1.7.533.533,0,0,0,.5.7h.5c2.5-.4,5-.9,7.5-1.2,2.6-.3,3.4.9,2.2,3.3a8.7357,8.7357,0,0,0-1,5.7,21.3905,21.3905,0,0,1-2.7,13.6c-.6,1.1-1.2,2.4-2.9,2.6-2.6.2-2.6.2-3.2,2.9a3.2875,3.2875,0,0,1-3.6,2.6,91.872,91.872,0,0,1-10.5-1.7c-6.2-1.4-12.3-3.1-18.5-4.6-3.2-.8-6.4-1.2-8.4-4.2a3.4431,3.4431,0,0,0-2.5-1.1c-2.9.2-5.3-1.5-8-2.1-.6-.1-1-.7-1.5-1.2-1.2-1.3-2.2-3-3.7-3.7-3.2-1.6-6.7-2.6-10.1-3.9a6.9081,6.9081,0,0,0-6.4.5,5.0376,5.0376,0,0,1-4.9.2c-1.1-.5-2.4-.8-3.5-1.2l-17.4-6c-2.8-1-5.6-2.1-8.5-3-3.1-1-6.3-1.9-9.5-3a3.2287,3.2287,0,0,0-4.5,3.1c-.2,5.8,1.1,11.2,5.8,15.2,2.9,2.5,6,4.3,9.9,4,2.6-.2,5.2-.7,7.7-.7,3.8,0,7.6.2,11.4.4a3.6312,3.6312,0,0,1,3.4,2.9c.7,2.9,2.5,4.2,5.4,4.3a3.664,3.664,0,0,1,3.5,2.5c.5,1.3,1,2.6,1.4,4,.9,2.8,1.8,3.5,4.8,3.9a11.5963,11.5963,0,0,1,4.6,1.2,9.5007,9.5007,0,0,0,6.7,1.6,3.16,3.16,0,0,1,2.6.8c2.1,2.8,5.1,3.8,8.2,4.6a4.5156,4.5156,0,0,1,3.4,3,6.7723,6.7723,0,0,0,3.6,4c2.8,1.4,5.6,2.8,8.5,4,4.5,1.9,9.1,3.8,13.7,5.6a19.0789,19.0789,0,0,1,8.1,5.3c2.6,3.1,5.2,6.2,8.1,9.1,2.7,2.8,5.4,6.1,9.4,7.2,3.8,1,7.5,1.9,11.3,2.8,5.8,1.4,11.7,2.7,17.6,4,1.5.3,2.3,1.3,1.8,2.7-.8,2.3-3.3,2.7-5.2,4.3a10.4676,10.4676,0,0,1-2.9,1.2c-1.8.3-3.6,2.3-4.7,3.5-1.7,1.9-.8,3.9-1.5,8.7-.5,3.4-.7,6.8-3.2,9.6-4.4,4.8-4.9,10.4-2.2,16.2,2.3,5.1,7.8,7.6,13.4,7.8a6.5664,6.5664,0,0,1,2.5.4,66.8867,66.8867,0,0,1,10.2,5.5,22.26,22.26,0,0,1,2.4,1.9c2.4,2.2,4.2,2.5,6.5.5,1.6-1.4,3.1-2.2,5.3-1.1,1.4.7,2.9,1.1,4.3,1.8a2.56,2.56,0,0,1,1.3,1.6,37.7006,37.7006,0,0,1,.4,5.8c0,2.6,0,5.2,1.7,7.3,2.5,2.9,5.2,5.7,9.1,6.6a13.5691,13.5691,0,0,0,2.9.3c3.5,0,7-1.4,10.4,2.2a7.0979,7.0979,0,0,0,5.3,2.2c1.4,0,2.3,2.5,4.2,1.1a6.4965,6.4965,0,0,1,6.3-.9c2.1.8,3.3,1.6,3.3,3.8,0,3.1-.5,6.2-.6,9.3-.1,1.8-.1,3.6-.1,5.5.1,1.8,1.6,2.5,3,2.7a3.4829,3.4829,0,0,0,2.8-1,69.8825,69.8825,0,0,0,5.5-7.9,53.7785,53.7785,0,0,0,2.7-6.6,2.7983,2.7983,0,0,1,3.3-1.7c3.3.6,6.6,1.2,9.8,1.8,2.3.4,4.7.4,6.9,1,2,.6,4.2.7,5.5,3,1.2,2.2,3,4,4.5,6.1a22.9542,22.9542,0,0,1,2.3,4,4.27,4.27,0,0,0,4.9,2.6,2.78,2.78,0,0,0,1.7-4.6c-.8-.9-1.9-1.4-2.7-2.2a10.7037,10.7037,0,0,1-1.4-1.6.6841.6841,0,0,1,.2-1c2.7-1.3,4.2-1,5.9,1.1.2.2.4.5.6.6,4.8,4.5,9.4,9.1,12.5,15,2.9,5.4,5.5,10.9,8.1,16.4a3.87,3.87,0,0,0,6.9-.2,33.9584,33.9584,0,0,0,.9-21.8c-1.3-4.7-3.2-9.3-4.4-14.1-1.2-4.5-1.9-9.2-2.9-13.8-.8-3.5-1.5-7.1-2.6-10.6a5.5894,5.5894,0,0,0-7-3.4,67.1176,67.1176,0,0,0-8.4,3.4,13.9972,13.9972,0,0,1-7.5,1.4,2.3928,2.3928,0,0,1-2.5-3.1c.3-2,.7-4.1,1.1-6.1,1.2-6.3,2.4-12.6,3.6-18.8.4-1.8.8-3.6,1.2-5.3.3-1.3,1.3-1.7,2.6-1.3,3.8,1.2,7.8,2.1,11.4,3.9,5.3,2.7,10.3,6.2,15.4,9.2,3.3,2,6.6,3.8,9.9,5.7,5.7,3.3,11.4,6.6,17.2,9.8,3.9,2.1,7.9,3.8,11.8,5.7,1.4.7,2.8,1.5,4.2,2.2,1.4.6,2.2.5,3.5,1.2,1.1.6,1.9,1.2,2.8.4a1.1778,1.1778,0,0,1,1.9.2c.2.4.4.7.6,1.1.1.1.2.2.3.2,1.5.1,3.1.4,4.7.4a1.7644,1.7644,0,0,0,1.3-1.2c0-1.4,1.1-1.5,1.8-1.6a10.972,10.972,0,0,1,3.5.5,14.4609,14.4609,0,0,1,2.2.9c1.6.4,3.3.7,4.8,1.2,1.1.3,2,.4,2.7-.4a3.7007,3.7007,0,0,1,3.3-1.3c4.5.5,8.9,1.1,13.4,1.2,2,.1,4,.3,6-.9a9.1524,9.1524,0,0,1,4.9-.9c1.3.1,2.2.2,3-.8.9-1.2,2.1-1.3,3.5-1.3,2.6,0,3.9-.6,4.9.3a5.0661,5.0661,0,0,0,1.5.7,4.735,4.735,0,0,0,2.4-1c.9-1,2,.5,2.8-.6.7-1,1.4-1.7,2.8-.9.9.5,2.1.4,3.1.7.3.1,5.5,1,5.7,1,2.6-.5,3.6-2.1,1.9-3.6-.6-.6-.7-.8-1-.9-1.6-.6-7.7-2.6-8.6-4.2-.1-.2-.6-.1-.9-.2-.4-.1-.8-.1-1-.3-2.3-2.3-4.9-4.3-6.7-6.9-1.8-2.7-4.1-3.5-6.9-4.1-2.1-.4-4.5-.8-4.1-4,0-.5-.9-1.2-1.5-1.5-1.9-.7-3.8-1.1-5.7-1.8a2.8937,2.8937,0,0,1-1.4-1.8,4.8253,4.8253,0,0,0-3.3-3.6,13.5864,13.5864,0,0,1-2.8-1.1c-3.5-1.7-7-3.3-10.4-5.2a15.5256,15.5256,0,0,1-2.8-2.4c-.2-.2-.3-.4-.2-.6.4-1.4-1.3-3.3-1.6-3.5-1.6-1.7-3.5-1.2-10.2-3.8a63.6824,63.6824,0,0,0-6.6-2.1c-1.3-.3-2.5-.9-3.7-1.3a73.2483,73.2483,0,0,0-7.5-2.5,64.5819,64.5819,0,0,0-7.5-1.1c-3.9-.4-7.7-1-11.6-1.1-5.7-.1-11.5.1-17.2.1-4.5,0-9,.1-13.5.1a13.1191,13.1191,0,0,1-4-.2c-4.7-1.5-9.3-3.3-14-4.8-5.9-2-12-3.6-17.4-7.1-2.7-1.8-5.2-.8-6.8,2-.6,1.1-1.2,2.3-1.9,3.4a2.7981,2.7981,0,0,1-3.3,1.7c-1.4-.3-2.8-.8-4.2-1.2-1.5-.4-1.8-1.5-1.3-2.8a19.277,19.277,0,0,1,1.9-3.8c2.4-3.8,5.1-7.5,7.4-11.5,1.9-3.2,4.1-5.6,8-6.3,3.8-.7,7.5-1.7,11.3-2.5,3.6-.7,7.2-1.4,10.9-2,3.5-.6,7-.9,10.5-1.4,5-.8,9.9-2.3,15.1-2,4,.3,8,.4,12,.8,2.9.3,5.8,1.1,8.7,1.7,2.8.5,5.6,1.1,8.4,1.6,4.5.9,9,1.7,13.4,2.6,4.7,1,9.5,1.4,13.6,4.1.9.6,1.9,1.1,2.8,1.6,2.6,1.7,5.3,3.5,7.9,5.3a47.5114,47.5114,0,0,0,5.8,4.2c4.5,2.4,9.5,2.2,14.4,2a85.8273,85.8273,0,0,0,8.7-1c2.5-.4,4.9-.8,7.3-1.4,1.6-.3,3.1-1,4.7-1.3a16.5169,16.5169,0,0,0,7.5-3.4,36.5913,36.5913,0,0,1,5-3.8c3.9-2.5,7.8-5.1,11.9-7.2,4.4-2.2,8.8-4.3,13.7-5.1,1.6-.3,3.1-.5,4.7-.8,3.3-.6,6.7-1.3,10-1.8,5.7-.9,7.1-1.9,8.4-6.3a71.2882,71.2882,0,0,0,3-22,3.553,3.553,0,0,0-.2-1,1.06,1.06,0,0,0-1.8-.4c-.2.3-.4.5-.6.8-2.8,6.1-5.8,11.9-12.5,14.5-3,1.2-6.2,2-9.3.5a17.9055,17.9055,0,0,1-4.4-3.4c-3.8-3.5-8.3-3.3-12.8-2.6-2.3.3-4.5,1-6.7,1.3a1.9932,1.9932,0,0,1-2.4-2.1,5.6625,5.6625,0,0,1,.3-1.8,36.5483,36.5483,0,0,0,2.1-12.3,18.7161,18.7161,0,0,0-7-14.3,24.24,24.24,0,0,0-10.4-4.8c-.5-.1-1.4-.8-1.3-1a5.5365,5.5365,0,0,1,1.2-1.9,1.7967,1.7967,0,0,1,1.1-.3,45.1059,45.1059,0,0,1,5.2,0,108.239,108.239,0,0,1,11.2,1.7,34.575,34.575,0,0,1,8.4,2.8c4,1.9,8,3,12.4,1.8a50.245,50.245,0,0,1,5.4-.8c3.4-.7,6.3-2.2,8-5.3,1.7-3,2.8-6.2,4.6-9.1,4.6-7.6,9.6-9.3,16.9-8.7,2,.2,3.1-.2,3.7-1.8C505.82,69.7243,505.2194,67.7243,503.82,66.6243Zm-474.5,23.4a.4809.4809,0,0,1-.6.2c-2.1-.7-3.9-1.2-5.7-1.7-4.2-1.2-8.3-2.4-12.5-3.5-2.5-.7-3.3-2-2.1-3.6a2.3327,2.3327,0,0,1,1.8-.6,48.4336,48.4336,0,0,1,6.5,1.9c4,1.4,7.9,2.9,11.8,4.5.6.2,1,1.1,1.2,1.7C29.8194,89.3243,29.5194,89.6243,29.3194,90.0243Zm36.1,18a1.92,1.92,0,0,1-3,.5c-2.1-1.9-3.5-3.9-2-6.7.9-1.7.7-3-.8-4.1-.9-.7-1.9-1.4-2.9-2.1-.7-.6-1.3-1.2-2-1.9a.5637.5637,0,0,1,.1-.9c1.5-.8,2.8-.2,3.9.2a12.8968,12.8968,0,0,1,7.3,5.9C67.1194,100.7243,66.7194,106.3243,65.4194,108.0243Zm6.9-2.9c-.3,0-1-1-1-1.6-.1-1.1.3-2.3,1.6-2.4.4,0,.8.8,1.2,1.4a.7549.7549,0,0,1,.1.8A1.8673,1.8673,0,0,1,72.3194,105.1243Zm7.7.9a16.2873,16.2873,0,0,1-1.1,1.7c-.2.2-.5.2-.6,0a3.9963,3.9963,0,0,1-.9-1.5,7.7739,7.7739,0,0,1,.4-3c.1-.3.6-.8.9-.8a1.5033,1.5033,0,0,1,1,.9,7.4221,7.4221,0,0,1,.4,1.8C80.0194,105.6243,80.1194,105.8243,80.0194,106.0243Zm37.4,12.6c-.6,1.1-1.4.9-2.2.7-3.3-.8-6.6-1.7-9.9-2.6-2.7-.7-5.5-1.4-8.2-2.2-3.8-1.1-7.6-2.1-11.4-3.3-.7-.2-1.2-1.2-1.5-1.5,0-2.1.9-3,2.4-2.6,5.6,1.3,11.1,2.6,16.7,4,4,1,7.9,2,11.9,3C117.7194,114.8243,118.5194,116.6243,117.4194,118.6243Zm42.4,64.7c-1.5,2.8-3.3,5.3-4.8,8.1a14.6812,14.6812,0,0,0-2.3,5.5,14.052,14.052,0,0,1-1.9,6.4c-2.8,4.6-2.4,8.9.9,13.2.5.6.2,1.8.2,2.6,0,.1-.8.5-1,.3-3.2-1.9-6.4-3.8-7.1-8-.8-4.4.4-8.2,2.9-11.8a17.5365,17.5365,0,0,0,2.6-4.6,72.4963,72.4963,0,0,0,1.6-8.1,14.2651,14.2651,0,0,1,4.1-7.2,3.2918,3.2918,0,0,1,2.7-.5C160.0194,179.8243,160.9194,181.2243,159.8194,183.3243Zm127.6,66.3c.3-.7.8-1.7,1.5-1.9,2.3-.9,4.7-1.5,7.1-2.3,4,.1,6.8,3.1,5.5,6.4a1.65,1.65,0,0,1-1.5.9,10.159,10.159,0,0,1-3.1-.9,9.4822,9.4822,0,0,1-2.7-1.7,1.8563,1.8563,0,0,0-2.8-.2,6.8951,6.8951,0,0,1-3.2.8C288.0194,250.8243,287.3194,249.8243,287.4194,249.6243Zm-66.3-186.3a85.5778,85.5778,0,0,1,8.9,7c5.1,4.8,10.1,9.7,14.9,14.7,1.5,1.5,3.2,3.1,3.2,5.9-.1.2-.2.9-.4,1a2.1678,2.1678,0,0,1-1.4-.5c-4.1-3.5-8.1-7.1-12.4-10.5-3.9-3.1-7.9-6.1-11.9-8.9-4.4-3-8.9-5.7-13.4-8.6-1.7-1.1-1.7-5,.1-5.8a4.007,4.007,0,0,1,2.6.3C214.62,59.7243,218.0194,61.2243,221.12,63.3243Zm-14.6-30.2c0-.3.6-.5.6-.6,1.9,0,5.6,3.1,5.7,4.5.1,1-.5,1.6-1.4,1.1a39.5086,39.5086,0,0,1-4.7-3.3C206.4194,34.6243,206.5194,33.7243,206.5194,33.1243Zm-43,5.2c4-2.5,8.2-4.8,12.4-7.1,2.3-1.2,4.8-2.1,7.1-3.2,2.9-1.4,5.7-.7,8.5.4.8.3,1.9.2,2.1,1.6a2.0014,2.0014,0,0,1-2.1,2.3,80.4849,80.4849,0,0,0-8.5.3,19.4481,19.4481,0,0,0-4.5,1.4c-1.1.5-1.4,2.3-.8,3.6a.3652.3652,0,0,1-.2.5c-5.1,1.6-10.1,3.1-15.2,4.7a.4857.4857,0,0,1-.6-.3C161.1194,40.7243,161.4194,39.6243,163.5194,38.3243Zm-12.1,44.1c.8-2.1,1.7-4.2,2.6-6.3,1.3-2.9,2.7-5.8,4.1-8.7,1-2.1.3-4.3-2.1-4.8a2.9581,2.9581,0,0,1-1.7-5,3.0462,3.0462,0,0,1,1-.7c.8-.3,5.1,1.1,5.3,1.8a6.5525,6.5525,0,0,1-.1,2.4c0,.5-.4,1.2-.2,1.5,2,2.6,1.2,4.4-.5,7.4-1.3,2.4-2.5,4.8-3.7,7.2a1.3945,1.3945,0,0,0,0,1.1c0,.3,1,.4,1.2.2,1.5-3,2.7-6.1,4.7-8.8,2-2.8.8-6.3,1.6-9.3,0-.2.2-.3.4-.3a2.06,2.06,0,0,1,2,1.9,11.8533,11.8533,0,0,1-.4,7.2c-2.3,5.2-4.5,10.5-6.8,15.7-.9,2-1.4,2.2-3.4,1.4-.6-.2-1.6-.5-2.2-.7C151.1194,85.4243,150.6194,84.4243,151.4194,82.4243Zm-6.7,23.1c1.1-4.2,3.4-7.6,7.5-9.5a1.8059,1.8059,0,0,0,1-1.4c0-.3-.7-.9-1.2-1-1-.3-2-.3-3-.5a2.8438,2.8438,0,0,1-2.1-3.9c.6-1.9,2.4-2.2,4.8-1a17.4557,17.4557,0,0,0,6.7,1.7c2,.1,3.2.9,3.2,3.1-.1,2.6-1.8,4.2-4.1,5.3a26.4662,26.4662,0,0,0-10.2,8.6,4.4855,4.4855,0,0,1-1.3,1,.712.712,0,0,1-1.1-.5A4.2694,4.2694,0,0,1,144.7194,105.5243Zm-3.6,7.3c1.6-.3,3.3-1.7,5,.3,2.2,2.4,2.6,4,.8,6a2.0259,2.0259,0,0,1-1.5.4,11.2534,11.2534,0,0,0-5.1-.9c-.5,0-1-.5-1.4-1.3v-.2a4.2528,4.2528,0,0,0,.2-1.1c0-.2,0-.3.1-.4C139.8194,114.5243,140.3194,112.9243,141.1194,112.8243Zm-15.7-3.8a2.3145,2.3145,0,0,1,1.4-1c.4-.1.9.3,1.4.4a2.2723,2.2723,0,0,0,2.9-1.5c.8-4.5,1.4-9,2-12.7-.2-5.6,1.9-9.7,4.7-13.5.2-.2.4-.5.6-.6.3-.1.7-.2,1-.3a.8027.8027,0,0,1,1,.6,2.1614,2.1614,0,0,1,.1,1.1c-1.9,4-2.1,8.2-2.8,12.5a9.9788,9.9788,0,0,1-1,2.9c-1.4,2.9-1.6,5.9-1.9,9-.2,2.4-2.8,5.8-5.2,6-1.4.1-2.9-.7-4.2-1.2A3.2432,3.2432,0,0,1,125.4194,109.0243Zm1.4,20.4a4.1005,4.1005,0,0,1-1.3-2.4l-.3-1.2a9.7353,9.7353,0,0,1-.1-1.6,10.4616,10.4616,0,0,1,.4-1.7c.2-1.2,1.1-1.6,2.3-1.1,1.5.8,3,1.6,4.6,2.4,2.5,1.2,3.8.9,5.5-1.3,1-1.3,1.6-1.6,3.3-.9a7.93,7.93,0,0,0,.9.4c2.6.8,3.1,2.2,1.6,4.4-1.1,1.6-2.5,3-3.7,4.5-2.6,3.2-4.7,2.3-7.6,1.4A16.529,16.529,0,0,1,126.8194,129.4243Zm44.7,30.7c-1.2,1.3-2.2,2.3-3.9,1.8-5.8-1.5-11.6-3-17.4-4.4-3.6-.9-7.1-1.6-10.7-2.5a19.4455,19.4455,0,0,1-3-1.3,1.7738,1.7738,0,0,1-.2-2.9,13.3344,13.3344,0,0,0,3.8-5,3.1545,3.1545,0,0,1,2.8-1.6c2.8-.1,5.6-.7,7.8-2.8,1.4-1.2,2.8-.6,4,.3a49.7488,49.7488,0,0,1,5.5,4.8c2,2.2,3,2.8,5.8,3.2a14.3317,14.3317,0,0,0,9.7-1.6,1.3566,1.3566,0,0,0,.5-2.2c-2.3-2.6,0-4.2.9-6.9a43.4313,43.4313,0,0,1,2.8-6.2c.6-1.2,1.4-1.9,2.8-.8,1.3,1,2.9,1.7,4.2,2.8a8.0156,8.0156,0,0,1,1.3,1.9,1.2683,1.2683,0,0,1,.1.6c-.2.7-.4,1.2-.5,1.7-.1,1.5-.1,3-.3,4.5a4.0621,4.0621,0,0,1-1.5,2.3c-4.2,4.3-8.6,8.4-13,12.7C172.4194,159.0243,172.0194,159.6243,171.5194,160.1243Zm8.6,4.6a8.6481,8.6481,0,0,0-2.3-.6c-3.1-.2-4.3-2-2.6-4.2a26.1663,26.1663,0,0,1,4.4-4.4c2.7-2,5.5-3.9,8.3-5.6,1.8-1.1,3.3-.8,3.9.5,1.4,2.8.6,4.3-1.3,5.3-2.3,1.1-4.6,2.1-6.9,3.3a2.6957,2.6957,0,0,0-.8.7,1.7993,1.7993,0,0,0-.1,2.1h0a.3674.3674,0,0,0,.3.1,46.51,46.51,0,0,1,5.2-2,4.066,4.066,0,0,1,1.9,0c.2,0,.4.2.3.4a4.711,4.711,0,0,1-.4,1.7C188.0194,165.5243,183.9194,166.5243,180.1194,164.7243Zm8.9,37.9c-1.8.3-2.7-.5-2.7-2.2a5.0182,5.0182,0,0,1,2.7-4.2,27.8318,27.8318,0,0,1,4.9-2.4c2.1-.8,1.8-.5,2,1.7a1.95,1.95,0,0,1-.1.8c-.4,1.3-.8,2.6-1.3,3.9-.7,1.7-1.2,2.4-3.1,2.3A17.7234,17.7234,0,0,0,189.0194,202.6243Zm8.1-3.6c2.3-8.1,4.8-16.1,7.3-24.1.5-1.6.9-3.2,1.5-4.8a14.7625,14.7625,0,0,1,1.6-2.7.6514.6514,0,0,1,.9-.2,5.8382,5.8382,0,0,1,3.2,7.4c-2.2,7-4.5,13.9-6.7,20.9-1.3,3.9-2.6,7.8-3.8,11.8-.7,2.3-1.6,3.4-2.9,3.1-2-.4-2.1-2.1-2-3.6A29.201,29.201,0,0,1,197.1194,199.0243Zm20.1,25.9c0,.4-.3.6-.7.7-.5,0-1,.1-1.3-.1-3.4-2-6.7-4.1-10.6-5.1-.5-.1-.9-.3-1.4-.4-3-.7-3.9.1-3.9,3.2v1.2c-.4,2.2.8,3.8,3,4.9,3.9,1.9,6.6,5.2,9.5,8.2a2.0827,2.0827,0,0,1,0,3c-.9.9-1.5-.1-2.3-.5-3.1-1.7-6.2-3.3-9.4-4.7-1.2-.5-3.4,1-4.2,2.8-.6,1.5-.9,3.1-1.4,4.6a9.7255,9.7255,0,0,1-.5,2l-.3.3a1.6867,1.6867,0,0,1-2.8-.3.3674.3674,0,0,1-.1-.3c-1.4-4.1-.8-8.3-.1-12.4a28.4058,28.4058,0,0,0,.1-9.2c-.3-2.3-.5-4.6-.6-7-.1-2.8.6-3.3,3.3-3.2,6.9.4,13.5,2.1,19.2,6.3a23.6133,23.6133,0,0,1,4.4,3.9A3.5373,3.5373,0,0,1,217.2194,224.9243Zm22.5,8.7c-.3,2.1-.7,4.1-1.1,6.2-.1.4-.6,1.1-1,1.1a19.0889,19.0889,0,0,1-4.8-.3c-1.5-.5-1.1-2.2-1.1-3.4,0-3.1.2-6.2.4-9.2a4.6712,4.6712,0,0,1,.3-1.7c.6-1.4,1.4-1.7,2.7-.9C239.4194,227.7243,239.8194,226.8243,239.7194,233.6243Zm30.9,4.4a1.574,1.574,0,0,1-2.7.9c-3.2-2.8-7-4.2-10.8-5.7-1.1-.4-1.5-1.5-1-2.8,1.1-2.7,6.8-5.6,9.7-5.4,3.3.2,4.2,2.4,4.8,4.9.3,1.3.3,2.6.5,4.2A32.1106,32.1106,0,0,1,270.62,238.0243Zm8.1-26.6c-.9,4.3-1.7,8.4-2.8,12.6-.5,2-1.2,2.1-2.7.7a17.6649,17.6649,0,0,0-3.5-2.6c-1.7-1-2.3-2.5-.9-4,2.3-2.6,4.7-5.1,7.1-7.6a.9984.9984,0,0,1,.5-.4,2.9937,2.9937,0,0,1,1.8-.3c.3.1.4.8.5,1.3Zm15.2-22.3c.5-.9,1.1-2.5,2.5-1.8,1.3.7.8,2.1.5,3.2-1.2,3.5-2.5,7-3.7,10.6-.5,1.6-.8,3.3-1.3,4.8a2.1258,2.1258,0,0,1-.9,1,.4941.4941,0,0,1-.7-.1c-.6-.3-.5-.7-.7-1.2a12.1675,12.1675,0,0,1-.1-2.1A32.53,32.53,0,0,1,293.9194,189.1243Zm-3.5-3.5a3.7173,3.7173,0,0,1,.4,3.1,47.988,47.988,0,0,0-3.9,13.9c-.2,2.3-1.9,2.9-3.9,1.8-1.5-.9-2.4-1.7-2-3.3a34.0587,34.0587,0,0,1,4.2-14.4C286.5194,184.1243,288.4194,183.5243,290.4194,185.6243Zm-15.8,13.2a38.2189,38.2189,0,0,1,5.7-15.6l.6-.6a1.6522,1.6522,0,0,1,1.9,0c.3.1.5.8.5,1.1a11.5038,11.5038,0,0,1-.6,1.7c-.5,1.3-.9,2.4-1.3,3.5-1.2,3.6-2.2,7.1-3.4,10.7-.4,1.1-.9,2.5-2.2,2.1C275.12,201.4243,274.5194,199.7243,274.62,198.8243Zm-15.4-6.1a2.957,2.957,0,0,1,1.9,2.3.9592.9592,0,0,1-.2.9,9.3509,9.3509,0,0,1-1.4,1.9c-1.1.9-1.2,1.6-.1,2.5,2.8,2.4,6.2,3.3,9.8,3.6a3.6863,3.6863,0,0,1,2.7,1.3c.7,1.1.1,2.4-.9,3.3-4,3.6-8.1,7.3-12.1,10.9-1.1,1-2.3,1.9-3.5,2.9a3.4886,3.4886,0,0,1-3.3.5,12.5452,12.5452,0,0,0-5.1-.2c-1.7.3-3.2,1.6-5,1.9-1.3.2-2.8-.5-4.1-.9-2.2-.7-4.4-1.6-6.7-2.2-2.3-.5-3.1-2.1-1.6-4a12.0156,12.0156,0,0,1,2.9-2.6,9.7516,9.7516,0,0,0,4.1-5.7,32.0636,32.0636,0,0,1,6.1-11c1.6-2,3.2-4.1,4.8-6.1a3.1319,3.1319,0,0,1,3.3-1.3A28.5443,28.5443,0,0,1,259.2194,192.7243Zm20.7-80.7c-3.9.3-7.8,0-11.7.4a75.7852,75.7852,0,0,0-9.5,1.8c-2.4.5-4.7,1.1-7.1,1.7-3.7,1-7.4,2.1-11,3.1-3.3.9-6.5,1.8-9.8,2.7-2,.5-3.9,1.1-6,1.5a50.6308,50.6308,0,0,1-6.8,1c-2.4.3-2.7.2-4.7.4h-1.1c-.7,0-2.1,0-2.4.5s-.3,1.1.2,1.3,1,.4,1.4.6c8.1,2.4,15.6,6.2,23.4,9.2,2.8,1.1,6,1.4,8.9,2.1,1.5.4,3,.7,4.5,1,4.6.8,9.1,1.5,13.7,2.3l2.7.6c1.2.2,1.2,1.1,1.2,2,0,1-.8.9-1.5.9-3.8-.2-7.7-.1-11.5-.5-3.3-.3-6.6-1-9.9-1.5l-7.2-.9a38.0787,38.0787,0,0,1-9.9-2.6c-4.4-1.8-8.8-3.2-13.2-4.9-3.3-1.2-6.5-2.6-9.8-3.9a55.2734,55.2734,0,0,0-6.6-2c-3.9-.9-7.8-1.6-11.8-2.4-1.9-.4-2.4-2.6-.8-4.2a11.7667,11.7667,0,0,1,4.2-2.9c6.6-2.2,13.6-2.5,20.5-2.9,6.3-.4,12.5-1.2,18.7-1.9q4.65-.6,9.3-1.5c6.4-1.2,12.7-2.6,19.1-3.6a95.7563,95.7563,0,0,1,24.5-1.1,22.87,22.87,0,0,1,3.6.7,1.346,1.346,0,0,1,.3,2.5C282.7194,112.3243,281.2194,111.9243,279.9194,112.0243Zm166.9,22.1c3.6-.9,7.2-1.5,10.8-2.3,1.7-.4,3.1.3,4.5,1.1,2.6,1.6,5.1,3.3,7.7,4.8a7.7406,7.7406,0,0,0,1.6.7,1.2994,1.2994,0,0,1,.8,1.2c-.2,1.8-1,2.4-3.6,2.1a60.0514,60.0514,0,0,0-11.2-.5,72.2763,72.2763,0,0,0-11.1,2.1,47.3214,47.3214,0,0,0-8.2,3c-2.2,1-4.3,2.3-6.4,3.5-4.7,2.6-9.6,4.9-14.9,5.4a47.55,47.55,0,0,1-11.3-.4c-2.1-.3-4.1-1.5-6.2-2.2a3.9257,3.9257,0,0,1-1.3-.6c-.6-.4-1.6-1-1.5-1.4a2.5623,2.5623,0,0,1,1.9-2.7c5.1-1.4,10.1-2.8,15.1-4.3,6.9-2,13.8-3.9,20.8-5.9C438.3194,136.6243,442.5194,135.2243,446.8194,134.1243Zm-16.4-35.2a33.42,33.42,0,0,1,4,3.5,3.3788,3.3788,0,0,1,.6,2c-.3,2-.6,1.7-2.5,1.4-4-.8-7.9-2.7-12.1-2.4-4.4.3-8.7-.1-13.1.3-4.7.4-9.4,1.5-14.1,2.2-2.4.3-4.7.4-7.1.5-1.1.1-1.4-.5-1.2-1.5.3-2.3-.1-2.4-2.4-2a50.61,50.61,0,0,1-6.8.5c-3.6.2-7.1.4-10.7.6-5.5.3-10.9.6-16.4.8-.9,0-1.8-.7-2.7-1.1-.5-.2-.5-.5-.1-.6a14.2543,14.2543,0,0,1,2.8-1.3c3.9-.9,7.8-1.8,11.7-2.5q6-1.05,12-1.5c5.1-.5,10.3-.7,15.4-1,1-.1,2,.2,2.9.1,1.2,0,2.5-.3,3.7-.3,8.8-.1,17.5-.2,26.3,0C423.9194,96.6243,427.5194,96.7243,430.4194,98.9243Zm2.6-32.3a14.7049,14.7049,0,0,1-4.2.6c-3.8.1-7.2,1.4-10.6,2.8-5.7,2.3-11.3,4.8-17.1,7-4.8,1.8-9.6,3.6-14.7,4.2a36.3875,36.3875,0,0,1-6.6-.1c-3.4-.2-6.8-.4-10.2-.5a10.49,10.49,0,0,0-3.6.4,4.2931,4.2931,0,0,0-2.2,2.2,1.8871,1.8871,0,0,1-1.9,1.4c-1.4.1-2.7.1-4.1.3-1.1.1-2.3.5-3.4.7-.3.1-.3.4-.1.6a9.1432,9.1432,0,0,0,1.4.7c2.4.4,4.8.8,7.4,1.3a.382.382,0,0,1,.3.5,2.4646,2.4646,0,0,1-2.5,1.8c-5.1.3-10.2.5-15.3.8-3,.2-6,.9-9.1,1.2a4.954,4.954,0,0,1-1.7-.2.8318.8318,0,0,1-.6-1c.2-.8.3-1.6.8-2a38.7436,38.7436,0,0,1,5.5-3.4c4.1-2.2,8.2-4.2,12.2-6.4,3.8-2.1,7.5-4.3,12-4.7,3.3-.3,6.7-.4,10-1,6.6-1.2,13.2-2.4,19.7-4.1,5.7-1.5,11.2-3.8,16.8-5.5a28.6274,28.6274,0,0,1,10.5-1.3c3.3.3,6.6.3,9.9.4a3.7073,3.7073,0,0,1,1.5.4c.5.3,1.2.3,1.2,1C434.5194,65.6243,433.62,66.4243,433.0194,66.6243Z"/>
    </g>
  </g>
</svg>
